<svg width="16" height="16" viewBox="0 0 16 16" fill="none" xmlns="http://www.w3.org/2000/svg">
<path d="M8.50001 2.525V1.5H10V0.5H6.00001V1.5H7.50001V2.525C5.8244 2.65428 4.26398 3.42752 3.14619 4.68249C2.02841 5.93745 1.44014 7.57658 1.50482 9.25593C1.56951 10.9353 2.28212 12.5243 3.49313 13.6896C4.70414 14.8548 6.31942 15.5057 8.00001 15.5057C9.6806 15.5057 11.2959 14.8548 12.5069 13.6896C13.7179 12.5243 14.4305 10.9353 14.4952 9.25593C14.5599 7.57658 13.9716 5.93745 12.8538 4.68249C11.736 3.42752 10.1756 2.65428 8.50001 2.525ZM8.50001 9.295L6.24001 10.53L5.74001 9.655L7.50001 8.705V5.155H8.50001V9.295Z" fill="#7B8794"/>
<path d="M11.3066 2.16992L11.9196 1.37992L14.6847 3.52543L14.0717 4.31543L11.3066 2.16992Z" fill="#7B8794"/>
<path d="M1.3125 3.5293L4.0775 1.3838L4.6905 2.1738L1.9255 4.3193L1.3125 3.5293Z" fill="#7B8794"/>
</svg>
