<svg width="16" height="16" viewBox="0 0 16 16" fill="none" xmlns="http://www.w3.org/2000/svg">
<path fill-rule="evenodd" clip-rule="evenodd" d="M3.99808 0.656381C3.62724 0.660694 3.33095 0.966349 3.33819 1.33714V2.00225H2.67308C1.57486 2.00225 0.666016 2.91112 0.666016 4.00931V4.67442H15.3597V4.00931C15.3597 2.91112 14.4521 2.00225 13.3539 2.00225H12.6888V1.33714C12.6963 0.958129 12.3871 0.648943 12.0081 0.656381C11.6388 0.662839 11.3449 0.967856 11.3521 1.33714V2.00225H8.68122V1.33714C8.68857 0.960213 8.38265 0.65193 8.00568 0.656381C7.63433 0.659975 7.33725 0.965845 7.34448 1.33714V2.00225H4.67362V1.33714C4.68097 0.960213 4.37505 0.65193 3.99808 0.656381ZM0.666016 6.00985V13.3547C0.666016 14.4529 1.57487 15.3605 2.67308 15.3605H13.3539C14.4521 15.3605 15.3597 14.4529 15.3597 13.3547V6.00985H0.666016ZM4.00721 8.68072C4.37598 8.68072 4.67492 8.97966 4.67492 9.34843C4.67492 9.7172 4.37598 10.0162 4.00721 10.0162C3.63844 10.0162 3.33949 9.7172 3.33949 9.34843C3.33949 8.97966 3.63844 8.68072 4.00721 8.68072ZM6.67807 8.68072C7.04684 8.68072 7.34579 8.97966 7.34579 9.34843C7.34579 9.7172 7.04684 10.0162 6.67807 10.0162C6.3093 10.0162 6.01035 9.7172 6.01035 9.34843C6.01035 8.97966 6.3093 8.68072 6.67807 8.68072ZM9.34894 8.68072C9.71771 8.68072 10.0167 8.97966 10.0167 9.34843C10.0167 9.7172 9.71771 10.0162 9.34894 10.0162C8.98017 10.0162 8.68122 9.7172 8.68122 9.34843C8.68122 8.97966 8.98017 8.68072 9.34894 8.68072ZM12.0198 8.68072C12.3886 8.68072 12.6875 8.97966 12.6875 9.34843C12.6875 9.7172 12.3886 10.0162 12.0198 10.0162C11.651 10.0162 11.3521 9.7172 11.3521 9.34843C11.3521 8.97966 11.651 8.68072 12.0198 8.68072ZM4.00721 11.3516C4.37598 11.3516 4.67492 11.6505 4.67492 12.0193C4.67492 12.3881 4.37598 12.687 4.00721 12.687C3.63844 12.687 3.33949 12.3881 3.33949 12.0193C3.33949 11.6505 3.63844 11.3516 4.00721 11.3516ZM6.67807 11.3516C7.04684 11.3516 7.34579 11.6505 7.34579 12.0193C7.34579 12.3881 7.04684 12.687 6.67807 12.687C6.3093 12.687 6.01035 12.3881 6.01035 12.0193C6.01035 11.6505 6.3093 11.3516 6.67807 11.3516ZM9.34894 11.3516C9.71771 11.3516 10.0167 11.6505 10.0167 12.0193C10.0167 12.3881 9.71771 12.687 9.34894 12.687C8.98017 12.687 8.68122 12.3881 8.68122 12.0193C8.68122 11.6505 8.98017 11.3516 9.34894 11.3516ZM12.0198 11.3516C12.3886 11.3516 12.6875 11.6505 12.6875 12.0193C12.6875 12.3881 12.3886 12.687 12.0198 12.687C11.651 12.687 11.3521 12.3881 11.3521 12.0193C11.3521 11.6505 11.651 11.3516 12.0198 11.3516Z" fill="#7B8794"/>
</svg>
