<svg width="16" height="16" viewBox="0 0 16 16" fill="none" xmlns="http://www.w3.org/2000/svg">
<path d="M2 14.5008H3.25C4.07501 14.5008 4.75 13.8258 4.75 13.0008V8.55078C4.75 7.7208 4.07501 7.05078 3.25 7.05078H2C1.17499 7.05078 0.5 7.7208 0.5 8.55078V13.0008C0.5 13.8258 1.17499 14.5008 2 14.5008Z" fill="#7B8794"/>
<path d="M8.625 4.27539H7.375C6.54999 4.27539 5.875 4.95038 5.875 5.77539V13.0004C5.875 13.8254 6.54999 14.5004 7.375 14.5004H8.625C9.45001 14.5004 10.125 13.8254 10.125 13.0004V5.77539C10.125 4.95038 9.45001 4.27539 8.625 4.27539Z" fill="#7B8794"/>
<path d="M14 1.5H12.75C11.925 1.5 11.25 2.17499 11.25 3V13C11.25 13.825 11.925 14.5 12.75 14.5H14C14.825 14.5 15.5 13.825 15.5 13V3C15.5 2.17499 14.825 1.5 14 1.5Z" fill="#7B8794"/>
</svg>
