<svg width="16" height="17" viewBox="0 0 16 17" fill="none" xmlns="http://www.w3.org/2000/svg">
<g clip-path="url(#clip0_753_2993)">
<path d="M13.2371 6.36587C13.1213 6.13425 13.2151 5.85272 13.4468 5.73691L15.3218 4.79941C15.5534 4.68406 15.8349 4.77744 15.9507 5.00906C16.0665 5.24069 15.9727 5.52222 15.7411 5.63803L13.8661 6.57553C13.6321 6.69175 13.3524 6.59572 13.2371 6.36587Z" fill="#9AA5B1"/>
<path d="M15.3218 11.2625L13.4468 10.325C13.2151 10.2092 13.1213 9.92771 13.2371 9.69608C13.3538 9.46493 13.6345 9.37199 13.8661 9.48643L15.7411 10.4239C15.9727 10.5397 16.0665 10.8213 15.9507 11.0529C15.8354 11.283 15.5555 11.3786 15.3218 11.2625Z" fill="#9AA5B1"/>
<path d="M15.5332 8.5H13.6582C13.3991 8.5 13.1895 8.29034 13.1895 8.03125C13.1895 7.77216 13.3991 7.5625 13.6582 7.5625H15.5332C15.7923 7.5625 16.002 7.77216 16.002 8.03125C16.002 8.29034 15.7923 8.5 15.5332 8.5Z" fill="#9AA5B1"/>
<path d="M11.7812 2.40625C11.5222 2.40625 11.3125 2.61591 11.3125 2.875V3.54431C9.61784 4.62922 7.62175 5.33063 5.625 5.57216V10.4904C7.62175 10.7319 9.61784 11.4333 11.3125 12.5182V13.1875C11.3125 13.4466 11.5222 13.6562 11.7812 13.6562C12.0403 13.6562 12.25 13.4466 12.25 13.1875V2.875C12.25 2.61591 12.0403 2.40625 11.7812 2.40625Z" fill="#9AA5B1"/>
<path d="M4.54284 13.7411C4.11121 12.9642 3.73837 12.0516 4.02555 11.2486L1.71065 10.9909C1.53659 10.9716 1.36899 10.9341 1.20596 10.8867C0.861367 11.8847 0.892555 12.8665 0.922367 13.601C0.929711 13.7892 0.937024 13.965 0.937024 14.1257C0.937024 14.3847 1.14668 14.5944 1.40577 14.5944H4.21827C4.38077 14.5944 4.53184 14.5102 4.61699 14.3719C4.70259 14.2337 4.71037 14.0611 4.63759 13.916L4.54284 13.7411Z" fill="#9AA5B1"/>
<path d="M0 8.03245C0 9.07341 0.780031 9.94497 1.81456 10.0599L4.6875 10.3793V5.68555L1.81456 6.00501C0.780031 6.11992 0 6.99148 0 8.03245Z" fill="#9AA5B1"/>
</g>
<defs>
<clipPath id="clip0_753_2993">
<rect width="16" height="16" fill="white" transform="translate(0 0.5)"/>
</clipPath>
</defs>
</svg>
