<svg width="16" height="16" viewBox="0 0 16 16" fill="none" xmlns="http://www.w3.org/2000/svg">
<g clip-path="url(#clip0_479_6842)">
<path d="M13.2371 5.86587C13.1213 5.63425 13.2151 5.35272 13.4468 5.23691L15.3218 4.29941C15.5534 4.18406 15.8349 4.27744 15.9507 4.50906C16.0665 4.74069 15.9727 5.02222 15.7411 5.13803L13.8661 6.07553C13.6321 6.19175 13.3524 6.09572 13.2371 5.86587Z" fill="white"/>
<path d="M15.3218 10.7625L13.4468 9.82505C13.2151 9.70924 13.1213 9.42771 13.2371 9.19608C13.3538 8.96493 13.6345 8.87199 13.8661 8.98643L15.7411 9.92392C15.9727 10.0397 16.0665 10.3213 15.9507 10.5529C15.8354 10.783 15.5555 10.8786 15.3218 10.7625Z" fill="white"/>
<path d="M15.5332 8H13.6582C13.3991 8 13.1895 7.79034 13.1895 7.53125C13.1895 7.27216 13.3991 7.0625 13.6582 7.0625H15.5332C15.7923 7.0625 16.002 7.27216 16.002 7.53125C16.002 7.79034 15.7923 8 15.5332 8Z" fill="white"/>
<path d="M11.7812 1.90625C11.5222 1.90625 11.3125 2.11591 11.3125 2.375V3.04431C9.61784 4.12922 7.62175 4.83063 5.625 5.07216V9.99037C7.62175 10.2319 9.61784 10.9333 11.3125 12.0182V12.6875C11.3125 12.9466 11.5222 13.1562 11.7812 13.1562C12.0403 13.1562 12.25 12.9466 12.25 12.6875V2.375C12.25 2.11591 12.0403 1.90625 11.7812 1.90625Z" fill="white"/>
<path d="M4.54284 13.2411C4.11121 12.4642 3.73837 11.5516 4.02555 10.7486L1.71065 10.4909C1.53659 10.4716 1.36899 10.4341 1.20596 10.3867C0.861367 11.3847 0.892555 12.3665 0.922367 13.101C0.929711 13.2892 0.937024 13.465 0.937024 13.6257C0.937024 13.8847 1.14668 14.0944 1.40577 14.0944H4.21827C4.38077 14.0944 4.53184 14.0102 4.61699 13.8719C4.70259 13.7337 4.71037 13.5611 4.63759 13.416L4.54284 13.2411Z" fill="white"/>
<path d="M0 7.53245C0 8.57341 0.780031 9.44497 1.81456 9.55988L4.6875 9.87934V5.18555L1.81456 5.50501C0.780031 5.61992 0 6.49148 0 7.53245Z" fill="white"/>
</g>
<defs>
<clipPath id="clip0_479_6842">
<rect width="16" height="16" fill="white"/>
</clipPath>
</defs>
</svg>
