<svg width="38" height="38" viewBox="0 0 38 38" fill="none" xmlns="http://www.w3.org/2000/svg">
<circle cx="19" cy="19" r="19" fill="#EEF1FB"/>
<path d="M29 22.6705C29 21.9076 28.5087 21.2633 27.8281 21.0206V14.9505L29 14.4673L19 10.4551L9 14.4673L19 18.4796L26.6562 15.4211V21.0206C25.9757 21.2633 25.4844 21.9076 25.4844 22.6705C25.4844 23.3689 25.8969 23.9684 26.4883 24.2518L25.5147 27.1726L26.6259 27.5434L27.2422 25.6946L27.8584 27.5434L28.9696 27.1726L27.9961 24.2518C28.5875 23.9685 29 23.3689 29 22.6705Z" fill="#324ECF"/>
<path d="M19 19.7425L13.7266 17.625V19.1548C13.7266 20.8251 15.9936 22.0845 19 22.0845C22.0064 22.0845 24.2734 20.8251 24.2734 19.1548V17.625L19 19.7425Z" fill="#324ECF"/>
</svg>
