<svg width="16" height="16" viewBox="0 0 16 16" fill="none" xmlns="http://www.w3.org/2000/svg">
<path d="M6.74945 6.88086L7.18445 8.00086H6.31445L6.74945 6.88086Z" fill="white"/>
<path d="M12 1H4C3.60218 1 3.22064 1.15804 2.93934 1.43934C2.65804 1.72064 2.5 2.10218 2.5 2.5V13.5C2.5 13.8978 2.65804 14.2794 2.93934 14.5607C3.22064 14.842 3.60218 15 4 15H9.5V12.5C9.5 12.1022 9.65804 11.7206 9.93934 11.4393C10.2206 11.158 10.6022 11 11 11H13.5V2.5C13.5 2.10218 13.342 1.72064 13.0607 1.43934C12.7794 1.15804 12.3978 1 12 1ZM8.68 10.465C8.62296 10.4886 8.56174 10.5005 8.5 10.5C8.39928 10.4997 8.301 10.469 8.21802 10.4119C8.13505 10.3548 8.07126 10.274 8.035 10.18L7.575 9H5.925L5.465 10.18C5.44499 10.2458 5.41163 10.3068 5.36698 10.3591C5.32233 10.4114 5.26737 10.454 5.20553 10.4841C5.14369 10.5142 5.07629 10.5313 5.00757 10.5341C4.93884 10.537 4.87026 10.5257 4.80612 10.5009C4.74197 10.476 4.68364 10.4382 4.63476 10.3898C4.58589 10.3414 4.54753 10.2835 4.52209 10.2196C4.49664 10.1556 4.48465 10.0872 4.48688 10.0184C4.4891 9.94968 4.50548 9.88213 4.535 9.82L6.285 5.32C6.32186 5.22674 6.38591 5.14672 6.46883 5.09032C6.55176 5.03393 6.64972 5.00378 6.75 5.00378C6.85028 5.00378 6.94824 5.03393 7.03117 5.09032C7.11409 5.14672 7.17814 5.22674 7.215 5.32L8.375 8.32L8.965 9.82C9.01236 9.94335 9.00897 10.0804 8.95556 10.2013C8.90216 10.3222 8.80309 10.417 8.68 10.465ZM11 6H10.5V6.5C10.5 6.63261 10.4473 6.75979 10.3536 6.85355C10.2598 6.94732 10.1326 7 10 7C9.86739 7 9.74021 6.94732 9.64645 6.85355C9.55268 6.75979 9.5 6.63261 9.5 6.5V6H9C8.86739 6 8.74021 5.94732 8.64645 5.85355C8.55268 5.75979 8.5 5.63261 8.5 5.5C8.5 5.36739 8.55268 5.24021 8.64645 5.14645C8.74021 5.05268 8.86739 5 9 5H9.5V4.5C9.5 4.36739 9.55268 4.24021 9.64645 4.14645C9.74021 4.05268 9.86739 4 10 4C10.1326 4 10.2598 4.05268 10.3536 4.14645C10.4473 4.24021 10.5 4.36739 10.5 4.5V5H11C11.1326 5 11.2598 5.05268 11.3536 5.14645C11.4473 5.24021 11.5 5.36739 11.5 5.5C11.5 5.63261 11.4473 5.75979 11.3536 5.85355C11.2598 5.94732 11.1326 6 11 6ZM10.5 12.5V14.71L13.21 12H11C10.8674 12 10.7402 12.0527 10.6464 12.1464C10.5527 12.2402 10.5 12.3674 10.5 12.5Z" fill="white"/>
</svg>
