<svg width="16" height="17" viewBox="0 0 16 17" fill="none" xmlns="http://www.w3.org/2000/svg">
<path d="M6.75141 7.38086L7.18641 8.50086H6.31641L6.75141 7.38086Z" fill="#9AA5B1"/>
<path d="M12 1.5H4C3.60218 1.5 3.22064 1.65804 2.93934 1.93934C2.65804 2.22064 2.5 2.60218 2.5 3V14C2.5 14.3978 2.65804 14.7794 2.93934 15.0607C3.22064 15.342 3.60218 15.5 4 15.5H9.5V13C9.5 12.6022 9.65804 12.2206 9.93934 11.9393C10.2206 11.658 10.6022 11.5 11 11.5H13.5V3C13.5 2.60218 13.342 2.22064 13.0607 1.93934C12.7794 1.65804 12.3978 1.5 12 1.5ZM8.68 10.965C8.62296 10.9886 8.56174 11.0005 8.5 11C8.39928 10.9997 8.301 10.969 8.21802 10.9119C8.13505 10.8548 8.07126 10.774 8.035 10.68L7.575 9.5H5.925L5.465 10.68C5.44499 10.7458 5.41163 10.8068 5.36698 10.8591C5.32233 10.9114 5.26737 10.954 5.20553 10.9841C5.14369 11.0142 5.07629 11.0313 5.00757 11.0341C4.93884 11.037 4.87026 11.0257 4.80612 11.0009C4.74197 10.976 4.68364 10.9382 4.63476 10.8898C4.58589 10.8414 4.54753 10.7835 4.52209 10.7196C4.49664 10.6556 4.48465 10.5872 4.48688 10.5184C4.4891 10.4497 4.50548 10.3821 4.535 10.32L6.285 5.82C6.32186 5.72674 6.38591 5.64672 6.46883 5.59032C6.55176 5.53393 6.64972 5.50378 6.75 5.50378C6.85028 5.50378 6.94824 5.53393 7.03117 5.59032C7.11409 5.64672 7.17814 5.72674 7.215 5.82L8.375 8.82L8.965 10.32C9.01236 10.4434 9.00897 10.5804 8.95556 10.7013C8.90216 10.8222 8.80309 10.917 8.68 10.965ZM11 6.5H10.5V7C10.5 7.13261 10.4473 7.25979 10.3536 7.35355C10.2598 7.44732 10.1326 7.5 10 7.5C9.86739 7.5 9.74021 7.44732 9.64645 7.35355C9.55268 7.25979 9.5 7.13261 9.5 7V6.5H9C8.86739 6.5 8.74021 6.44732 8.64645 6.35355C8.55268 6.25979 8.5 6.13261 8.5 6C8.5 5.86739 8.55268 5.74021 8.64645 5.64645C8.74021 5.55268 8.86739 5.5 9 5.5H9.5V5C9.5 4.86739 9.55268 4.74021 9.64645 4.64645C9.74021 4.55268 9.86739 4.5 10 4.5C10.1326 4.5 10.2598 4.55268 10.3536 4.64645C10.4473 4.74021 10.5 4.86739 10.5 5V5.5H11C11.1326 5.5 11.2598 5.55268 11.3536 5.64645C11.4473 5.74021 11.5 5.86739 11.5 6C11.5 6.13261 11.4473 6.25979 11.3536 6.35355C11.2598 6.44732 11.1326 6.5 11 6.5ZM10.5 13V15.21L13.21 12.5H11C10.8674 12.5 10.7402 12.5527 10.6464 12.6464C10.5527 12.7402 10.5 12.8674 10.5 13Z" fill="#9AA5B1"/>
</svg>
