<svg width="16" height="16" viewBox="0 0 16 16" fill="none" xmlns="http://www.w3.org/2000/svg">
<g clip-path="url(#clip0_2688_10202)">
<path d="M15.746 7.23233L8.34595 0.139069C8.15271 -0.0463562 7.84729 -0.0463562 7.65405 0.139069L0.246704 7.23965C0.0899658 7.39639 0 7.61234 0 7.83304C0 8.29239 0.374023 8.66641 0.833374 8.66641H2V14.9997C2 15.5517 2.448 15.9997 3 15.9997H5.83337C6.10938 15.9997 6.33337 15.7757 6.33337 15.4997V11.1664C6.33337 11.075 6.40796 10.9997 6.5 10.9997H9.5C9.59131 10.9997 9.66663 11.075 9.66663 11.1664V15.4997C9.66663 15.7757 9.89062 15.9997 10.1666 15.9997H13C13.552 15.9997 14 15.5517 14 14.9997V8.66641H15.1666C15.626 8.66641 16 8.29239 16 7.83304C16 7.61234 15.91 7.39639 15.746 7.23233Z" fill="white"/>
</g>
<defs>
<clipPath id="clip0_2688_10202">
<rect width="16" height="16" fill="white"/>
</clipPath>
</defs>
</svg>
