<svg width="16" height="17" viewBox="0 0 16 17" fill="none" xmlns="http://www.w3.org/2000/svg">
<path d="M15.746 7.73233L8.34595 0.639069C8.15271 0.453644 7.84729 0.453644 7.65405 0.639069L0.246704 7.73965C0.0899658 7.89639 0 8.11234 0 8.33304C0 8.79239 0.374023 9.16641 0.833374 9.16641H2V15.4997C2 16.0517 2.448 16.4997 3 16.4997H5.83337C6.10938 16.4997 6.33337 16.2757 6.33337 15.9997V11.6664C6.33337 11.575 6.40796 11.4997 6.5 11.4997H9.5C9.59131 11.4997 9.66663 11.575 9.66663 11.6664V15.9997C9.66663 16.2757 9.89062 16.4997 10.1666 16.4997H13C13.552 16.4997 14 16.0517 14 15.4997V9.16641H15.1666C15.626 9.16641 16 8.79239 16 8.33304C16 8.11234 15.91 7.89639 15.746 7.73233Z" fill="#9AA5B1"/>
</svg>
