<svg width="16" height="17" viewBox="0 0 16 17" fill="none" xmlns="http://www.w3.org/2000/svg">
<g clip-path="url(#clip0_402_2755)">
<path d="M2.84366 9.40625H0.78125V16.031C0.78125 16.2897 0.991241 16.4997 1.24998 16.4997H2.92428C2.87209 16.3531 2.84366 16.1953 2.84366 16.031V9.40625Z" fill="#9AA5B1"/>
<path d="M2.16612 7.55522L2.84078 5.53125H1.25022C1.05711 5.53125 0.88399 5.64968 0.81368 5.82936L0.0324656 7.82927C-0.0872165 8.13645 0.138711 8.46862 0.469008 8.46862H2.17487C2.07175 8.17676 2.06644 7.85458 2.16612 7.55522Z" fill="#9AA5B1"/>
<path d="M13.1568 16.031C13.1568 16.1953 13.1284 16.3531 13.0762 16.4997H14.7505C15.0092 16.4997 15.2192 16.2897 15.2192 16.031V9.40625H13.1568V16.031Z" fill="#9AA5B1"/>
<path d="M15.9685 7.82927L15.1873 5.82936C15.1169 5.64968 14.9438 5.53125 14.7507 5.53125H13.1602L13.8348 7.55522C13.9345 7.8549 13.9292 8.17707 13.8258 8.46862H15.5319C15.8615 8.46862 16.0888 8.13635 15.9685 7.82927Z" fill="#9AA5B1"/>
<path d="M11.9426 4.85201C11.8788 4.66062 11.6997 4.53153 11.498 4.53153H8.46686V3.56766L10.6721 2.68558C11.0441 2.53677 11.0698 2.01673 10.7118 1.83324L8.21193 0.55205C7.90045 0.392526 7.5294 0.618953 7.5294 0.969188V4.53153H4.49829C4.29651 4.53153 4.11743 4.66062 4.05362 4.85201L3.05366 7.85188C2.95261 8.15499 3.1785 8.46885 3.49833 8.46885H12.4979C12.8175 8.46885 13.0437 8.1553 12.9426 7.85188L11.9426 4.85201Z" fill="#9AA5B1"/>
<path d="M3.78125 16.031C3.78125 16.2897 3.99124 16.4997 4.24998 16.4997H6.53113V14.9998C6.53113 14.7409 6.74099 14.531 6.99986 14.531H8.99976C9.25863 14.531 9.46849 14.7409 9.46849 14.9998V16.4997H11.7496C12.0084 16.4997 12.2184 16.2897 12.2184 16.031V9.40625H3.78125V16.031ZM5.9999 10.5312H9.99972C10.2586 10.5312 10.4684 10.7411 10.4684 10.9999C10.4684 11.2588 10.2586 11.4687 9.99972 11.4687H5.9999C5.74104 11.4687 5.53117 11.2588 5.53117 10.9999C5.53117 10.7411 5.74104 10.5312 5.9999 10.5312ZM5.9999 12.5311H9.99972C10.2586 12.5311 10.4684 12.741 10.4684 12.9998C10.4684 13.2587 10.2586 13.4686 9.99972 13.4686H5.9999C5.74104 13.4686 5.53117 13.2587 5.53117 12.9998C5.53117 12.741 5.74104 12.5311 5.9999 12.5311Z" fill="#9AA5B1"/>
<path d="M7.4668 15.4688H8.52925V16.5H7.4668V15.4688Z" fill="#9AA5B1"/>
</g>
<defs>
<clipPath id="clip0_402_2755">
<rect width="16" height="16" fill="white" transform="translate(0 0.5)"/>
</clipPath>
</defs>
</svg>
