<svg width="16" height="16" viewBox="0 0 16 16" fill="none" xmlns="http://www.w3.org/2000/svg">
<g clip-path="url(#clip0_402_2751)">
<path d="M7.49961 14.4C6.69961 13.6 6.69961 12.4 7.49961 11.6C8.29961 10.8 9.49961 10.8 10.2996 11.6L10.8996 12.2L12.7996 10.1C12.0996 9.7 11.4996 9.7 10.7996 9.7C10.0996 9.6 9.39961 9.4 9.39961 8.8C9.39961 8.2 10.1996 8.4 10.7996 7.3C10.7996 7.3 13.4996 0 7.89961 0C2.39961 0 5.09961 7.3 5.09961 7.3C5.69961 8.3 6.49961 8.1 6.49961 8.8C6.49961 9.5 5.79961 9.5 5.09961 9.6C3.99961 9.7 2.99961 9.5 1.99961 11.3C1.39961 12.4 1.09961 16 1.09961 16H9.09961L7.49961 14.4Z" fill="white"/>
<path d="M12.8008 16H14.9008C14.9008 16 14.8008 15.1 14.7008 14L12.8008 16Z" fill="white"/>
<path d="M11 15.9994C10.7 15.9994 10.5 15.8994 10.3 15.6994L8.3 13.6994C7.9 13.2994 7.9 12.6994 8.3 12.2994C8.7 11.8994 9.3 11.8994 9.7 12.2994L11 13.5994L14.3 9.99939C14.7 9.59939 15.3 9.59939 15.7 9.89939C16.1 10.2994 16.1 10.8994 15.8 11.2994L11.8 15.5994C11.5 15.8994 11.3 15.9994 11 15.9994Z" fill="white"/>
</g>
<defs>
<clipPath id="clip0_402_2751">
<rect width="16" height="16" fill="white"/>
</clipPath>
</defs>
</svg>
