<svg width="16" height="17" viewBox="0 0 16 17" fill="none" xmlns="http://www.w3.org/2000/svg">
<g clip-path="url(#clip0_402_2503)">
<path d="M7.50156 14.9C6.70156 14.1 6.70156 12.9 7.50156 12.1C8.30156 11.3 9.50156 11.3 10.3016 12.1L10.9016 12.7L12.8016 10.6C12.1016 10.2 11.5016 10.2 10.8016 10.2C10.1016 10.1 9.40156 9.9 9.40156 9.3C9.40156 8.7 10.2016 8.9 10.8016 7.8C10.8016 7.8 13.5016 0.5 7.90156 0.5C2.40156 0.5 5.10156 7.8 5.10156 7.8C5.70156 8.8 6.50156 8.6 6.50156 9.3C6.50156 10 5.80156 10 5.10156 10.1C4.00156 10.2 3.00156 10 2.00156 11.8C1.40156 12.9 1.10156 16.5 1.10156 16.5H9.10156L7.50156 14.9Z" fill="#9AA5B1"/>
<path d="M12.8008 16.5H14.9008C14.9008 16.5 14.8008 15.6 14.7008 14.5L12.8008 16.5Z" fill="#9AA5B1"/>
<path d="M11 16.4994C10.7 16.4994 10.5 16.3994 10.3 16.1994L8.3 14.1994C7.9 13.7994 7.9 13.1994 8.3 12.7994C8.7 12.3994 9.3 12.3994 9.7 12.7994L11 14.0994L14.3 10.4994C14.7 10.0994 15.3 10.0994 15.7 10.3994C16.1 10.7994 16.1 11.3994 15.8 11.7994L11.8 16.0994C11.5 16.3994 11.3 16.4994 11 16.4994Z" fill="#9AA5B1"/>
</g>
<defs>
<clipPath id="clip0_402_2503">
<rect width="16" height="16" fill="white" transform="translate(0 0.5)"/>
</clipPath>
</defs>
</svg>
