<svg width="16" height="16" viewBox="0 0 16 16" fill="none" xmlns="http://www.w3.org/2000/svg">
<g clip-path="url(#clip0_402_2492)">
<path d="M2.84366 8.90625H0.78125V15.531C0.78125 15.7897 0.991241 15.9997 1.24998 15.9997H2.92428C2.87209 15.8531 2.84366 15.6953 2.84366 15.531V8.90625Z" fill="white"/>
<path d="M2.16612 7.05522L2.84078 5.03125H1.25022C1.05711 5.03125 0.88399 5.14968 0.81368 5.32936L0.0324656 7.32927C-0.0872165 7.63645 0.138711 7.96862 0.469008 7.96862H2.17487C2.07175 7.67676 2.06644 7.35458 2.16612 7.05522Z" fill="white"/>
<path d="M13.1548 15.531C13.1548 15.6953 13.1264 15.8531 13.0742 15.9997H14.7485C15.0073 15.9997 15.2172 15.7897 15.2172 15.531V8.90625H13.1548V15.531Z" fill="white"/>
<path d="M15.9685 7.32927L15.1873 5.32936C15.1169 5.14968 14.9438 5.03125 14.7507 5.03125H13.1602L13.8348 7.05522C13.9345 7.3549 13.9292 7.67707 13.8258 7.96862H15.5319C15.8615 7.96862 16.0888 7.63635 15.9685 7.32927Z" fill="white"/>
<path d="M11.9446 4.35201C11.8808 4.16062 11.7017 4.03153 11.4999 4.03153H8.46881V3.06766L10.6741 2.18558C11.046 2.03677 11.0718 1.51673 10.7138 1.33324L8.21389 0.0520502C7.9024 -0.107474 7.53135 0.118953 7.53135 0.469188V4.03153H4.50024C4.29847 4.03153 4.11938 4.16062 4.05557 4.35201L3.05562 7.35188C2.95456 7.65499 3.18046 7.96885 3.50028 7.96885H12.4999C12.8194 7.96885 13.0457 7.6553 12.9445 7.35188L11.9446 4.35201Z" fill="white"/>
<path d="M3.78125 15.531C3.78125 15.7897 3.99124 15.9997 4.24998 15.9997H6.53113V14.4998C6.53113 14.2409 6.74099 14.031 6.99986 14.031H8.99976C9.25863 14.031 9.46849 14.2409 9.46849 14.4998V15.9997H11.7496C12.0084 15.9997 12.2184 15.7897 12.2184 15.531V8.90625H3.78125V15.531ZM5.9999 10.0312H9.99972C10.2586 10.0312 10.4684 10.2411 10.4684 10.4999C10.4684 10.7588 10.2586 10.9687 9.99972 10.9687H5.9999C5.74104 10.9687 5.53117 10.7588 5.53117 10.4999C5.53117 10.2411 5.74104 10.0312 5.9999 10.0312ZM5.9999 12.0311H9.99972C10.2586 12.0311 10.4684 12.241 10.4684 12.4998C10.4684 12.7587 10.2586 12.9686 9.99972 12.9686H5.9999C5.74104 12.9686 5.53117 12.7587 5.53117 12.4998C5.53117 12.241 5.74104 12.0311 5.9999 12.0311Z" fill="white"/>
<path d="M7.46875 14.9688H8.5312V16H7.46875V14.9688Z" fill="white"/>
</g>
<defs>
<clipPath id="clip0_402_2492">
<rect width="16" height="16" fill="white"/>
</clipPath>
</defs>
</svg>
