<svg width="16" height="16" viewBox="0 0 16 16" fill="none" xmlns="http://www.w3.org/2000/svg">
<g clip-path="url(#clip0_402_2853)">
<path d="M6.40039 11.8672H9.59605V16.0003H6.40039V11.8672Z" fill="white"/>
<path d="M5.16211 3.00977H6.52173V4.36939H5.16211V3.00977Z" fill="white"/>
<path d="M9.47656 3.00977H10.8362V4.36939H9.47656V3.00977Z" fill="white"/>
<path d="M5.16211 7.37305H6.52173V8.73268H5.16211V7.37305Z" fill="white"/>
<path d="M9.47656 7.37305H10.8362V8.73268H9.47656V7.37305Z" fill="white"/>
<path d="M15.0705 15.0625H13.8338V0.46875C13.8338 0.209875 13.624 0 13.3651 0H2.63311C2.37423 0 2.16436 0.209875 2.16436 0.46875V15.0625H0.927734C0.668859 15.0625 0.458984 15.2724 0.458984 15.5312C0.458984 15.7901 0.668859 16 0.927734 16H5.4638V11.3981C5.4638 11.1392 5.67367 10.9293 5.93255 10.9293H10.0657C10.3245 10.9293 10.5344 11.1392 10.5344 11.3981V16H15.0705C15.3294 16 15.5392 15.7901 15.5392 15.5312C15.5392 15.2724 15.3294 15.0625 15.0705 15.0625ZM11.7729 2.54091V4.83803C11.7729 5.09691 11.563 5.30678 11.3041 5.30678H9.00698C8.74811 5.30678 8.53823 5.09691 8.53823 4.83803V2.54091C8.53823 2.28203 8.74811 2.07216 9.00698 2.07216H11.3041C11.563 2.07216 11.7729 2.28203 11.7729 2.54091ZM7.45998 9.20194C7.45998 9.46081 7.25011 9.67069 6.99123 9.67069H4.69411C4.43523 9.67069 4.22536 9.46081 4.22536 9.20194V6.90481C4.22536 6.64594 4.43523 6.43606 4.69411 6.43606H6.99123C7.25011 6.43606 7.45998 6.64594 7.45998 6.90481V9.20194ZM7.45998 4.83803C7.45998 5.09691 7.25011 5.30678 6.99123 5.30678H4.69411C4.43523 5.30678 4.22536 5.09691 4.22536 4.83803V2.54091C4.22536 2.28203 4.43523 2.07216 4.69411 2.07216H6.99123C7.25011 2.07216 7.45998 2.28203 7.45998 2.54091V4.83803ZM9.00698 9.67069C8.74811 9.67069 8.53823 9.46081 8.53823 9.20194V6.90481C8.53823 6.64594 8.74811 6.43606 9.00698 6.43606H11.3041C11.563 6.43606 11.7729 6.64594 11.7729 6.90481V9.20194C11.7729 9.46081 11.563 9.67069 11.3041 9.67069H9.00698Z" fill="white"/>
</g>
<defs>
<clipPath id="clip0_402_2853">
<rect width="16" height="16" fill="white"/>
</clipPath>
</defs>
</svg>
