<svg width="16" height="17" viewBox="0 0 16 17" fill="none" xmlns="http://www.w3.org/2000/svg">
<g clip-path="url(#clip0_402_2509)">
<path d="M6.40234 12.3672H9.59801V16.5003H6.40234V12.3672Z" fill="#9AA5B1"/>
<path d="M5.16406 3.50977H6.52369V4.86939H5.16406V3.50977Z" fill="#9AA5B1"/>
<path d="M9.47656 3.50977H10.8362V4.86939H9.47656V3.50977Z" fill="#9AA5B1"/>
<path d="M5.16406 7.87305H6.52369V9.23268H5.16406V7.87305Z" fill="#9AA5B1"/>
<path d="M9.47656 7.87305H10.8362V9.23268H9.47656V7.87305Z" fill="#9AA5B1"/>
<path d="M15.0724 15.5625H13.8358V0.96875C13.8358 0.709875 13.6259 0.5 13.367 0.5H2.63506C2.37619 0.5 2.16631 0.709875 2.16631 0.96875V15.5625H0.929688C0.670812 15.5625 0.460938 15.7724 0.460938 16.0312C0.460938 16.2901 0.670812 16.5 0.929688 16.5H5.46575V11.8981C5.46575 11.6392 5.67562 11.4293 5.9345 11.4293H10.0676C10.3265 11.4293 10.5364 11.6392 10.5364 11.8981V16.5H15.0724C15.3313 16.5 15.5412 16.2901 15.5412 16.0312C15.5412 15.7724 15.3313 15.5625 15.0724 15.5625ZM11.7748 3.04091V5.33803C11.7748 5.59691 11.5649 5.80678 11.3061 5.80678H9.00894C8.75006 5.80678 8.54019 5.59691 8.54019 5.33803V3.04091C8.54019 2.78203 8.75006 2.57216 9.00894 2.57216H11.3061C11.5649 2.57216 11.7748 2.78203 11.7748 3.04091ZM7.46194 9.70194C7.46194 9.96081 7.25206 10.1707 6.99319 10.1707H4.69606C4.43719 10.1707 4.22731 9.96081 4.22731 9.70194V7.40481C4.22731 7.14594 4.43719 6.93606 4.69606 6.93606H6.99319C7.25206 6.93606 7.46194 7.14594 7.46194 7.40481V9.70194ZM7.46194 5.33803C7.46194 5.59691 7.25206 5.80678 6.99319 5.80678H4.69606C4.43719 5.80678 4.22731 5.59691 4.22731 5.33803V3.04091C4.22731 2.78203 4.43719 2.57216 4.69606 2.57216H6.99319C7.25206 2.57216 7.46194 2.78203 7.46194 3.04091V5.33803ZM9.00894 10.1707C8.75006 10.1707 8.54019 9.96081 8.54019 9.70194V7.40481C8.54019 7.14594 8.75006 6.93606 9.00894 6.93606H11.3061C11.5649 6.93606 11.7748 7.14594 11.7748 7.40481V9.70194C11.7748 9.96081 11.5649 10.1707 11.3061 10.1707H9.00894Z" fill="#9AA5B1"/>
</g>
<defs>
<clipPath id="clip0_402_2509">
<rect width="16" height="16" fill="white" transform="translate(0 0.5)"/>
</clipPath>
</defs>
</svg>
