<svg width="40" height="40" viewBox="0 0 40 40" fill="none" xmlns="http://www.w3.org/2000/svg">
<circle cx="20" cy="20" r="20" fill="#EEF1FB" fill-opacity="0.72"/>
<g clip-path="url(#clip0_699_2419)">
<path d="M26.2533 23.2753C25.2453 22.4233 24.6673 21.178 24.6673 19.8587V18C24.6673 15.654 22.9247 13.712 20.6673 13.3867V12.6667C20.6673 12.298 20.3687 12 20.0007 12C19.6327 12 19.334 12.298 19.334 12.6667V13.3867C17.076 13.712 15.334 15.654 15.334 18V19.8587C15.334 21.178 14.756 22.4233 13.742 23.2807C13.4827 23.5027 13.334 23.8253 13.334 24.1667C13.334 24.81 13.8573 25.3333 14.5007 25.3333H25.5007C26.144 25.3333 26.6673 24.81 26.6673 24.1667C26.6673 23.8253 26.5187 23.5027 26.2533 23.2753Z" fill="#324ECF"/>
<path d="M20.0011 28C21.2084 28 22.2184 27.1393 22.4504 26H17.5518C17.7838 27.1393 18.7938 28 20.0011 28Z" fill="#324ECF"/>
</g>
<defs>
<clipPath id="clip0_699_2419">
<rect width="16" height="16" fill="white" transform="translate(12 12)"/>
</clipPath>
</defs>
</svg>
