<svg width="16" height="16" viewBox="0 0 16 16" fill="none" xmlns="http://www.w3.org/2000/svg">
<path d="M14.75 2.53125H13.6562V13C13.6562 13.7754 13.0254 14.4062 12.25 14.4062H3.28125V15.5312C3.28125 15.7901 3.49112 16 3.75 16H14.75C15.0089 16 15.2188 15.7901 15.2188 15.5312V3C15.2188 2.74112 15.0089 2.53125 14.75 2.53125Z" fill="white"/>
<path d="M12.7188 13V0.46875C12.7188 0.209875 12.5089 0 12.25 0H1.25C0.991125 0 0.78125 0.209875 0.78125 0.46875V13C0.78125 13.2589 0.991125 13.4688 1.25 13.4688H12.25C12.5089 13.4688 12.7188 13.2589 12.7188 13ZM2.78125 4.5C2.78125 4.24113 2.99113 4.03125 3.25 4.03125H5.75C6.00887 4.03125 6.21875 4.24113 6.21875 4.5V9C6.21875 9.25887 6.00887 9.46875 5.75 9.46875H3.25C2.99113 9.46875 2.78125 9.25887 2.78125 9V4.5ZM10.25 11.4688H3.25C2.99113 11.4688 2.78125 11.2589 2.78125 11C2.78125 10.7411 2.99113 10.5312 3.25 10.5312H10.25C10.5089 10.5312 10.7188 10.7411 10.7188 11C10.7188 11.2589 10.5089 11.4688 10.25 11.4688ZM10.25 9.46875H7.75C7.49113 9.46875 7.28125 9.25887 7.28125 9C7.28125 8.74113 7.49113 8.53125 7.75 8.53125H10.25C10.5089 8.53125 10.7188 8.74113 10.7188 9C10.7188 9.25887 10.5089 9.46875 10.25 9.46875ZM10.25 7.21875H7.75C7.49113 7.21875 7.28125 7.00887 7.28125 6.75C7.28125 6.49113 7.49113 6.28125 7.75 6.28125H10.25C10.5089 6.28125 10.7188 6.49113 10.7188 6.75C10.7188 7.00887 10.5089 7.21875 10.25 7.21875ZM10.25 5.21875H7.75C7.49113 5.21875 7.28125 5.00887 7.28125 4.75C7.28125 4.49113 7.49113 4.28125 7.75 4.28125H10.25C10.5089 4.28125 10.7188 4.49113 10.7188 4.75C10.7188 5.00887 10.5089 5.21875 10.25 5.21875ZM10.25 2.96875H3.25C2.99113 2.96875 2.78125 2.75887 2.78125 2.5C2.78125 2.24113 2.99113 2.03125 3.25 2.03125H10.25C10.5089 2.03125 10.7188 2.24113 10.7188 2.5C10.7188 2.75887 10.5089 2.96875 10.25 2.96875Z" fill="white"/>
<path d="M3.71875 4.96875H5.28125V8.53125H3.71875V4.96875Z" fill="white"/>
</svg>
