<svg width="16" height="17" viewBox="0 0 16 17" fill="none" xmlns="http://www.w3.org/2000/svg">
<g clip-path="url(#clip0_402_2542)">
<path d="M14.75 3.03125H13.6562V13.5C13.6562 14.2754 13.0254 14.9062 12.25 14.9062H3.28125V16.0312C3.28125 16.2901 3.49112 16.5 3.75 16.5H14.75C15.0089 16.5 15.2188 16.2901 15.2188 16.0312V3.5C15.2188 3.24112 15.0089 3.03125 14.75 3.03125Z" fill="#9AA5B1"/>
<path d="M12.7188 13.5V0.96875C12.7188 0.709875 12.5089 0.5 12.25 0.5H1.25C0.991125 0.5 0.78125 0.709875 0.78125 0.96875V13.5C0.78125 13.7589 0.991125 13.9688 1.25 13.9688H12.25C12.5089 13.9688 12.7188 13.7589 12.7188 13.5ZM2.78125 5C2.78125 4.74113 2.99113 4.53125 3.25 4.53125H5.75C6.00887 4.53125 6.21875 4.74113 6.21875 5V9.5C6.21875 9.75887 6.00887 9.96875 5.75 9.96875H3.25C2.99113 9.96875 2.78125 9.75887 2.78125 9.5V5ZM10.25 11.9688H3.25C2.99113 11.9688 2.78125 11.7589 2.78125 11.5C2.78125 11.2411 2.99113 11.0312 3.25 11.0312H10.25C10.5089 11.0312 10.7188 11.2411 10.7188 11.5C10.7188 11.7589 10.5089 11.9688 10.25 11.9688ZM10.25 9.96875H7.75C7.49113 9.96875 7.28125 9.75887 7.28125 9.5C7.28125 9.24113 7.49113 9.03125 7.75 9.03125H10.25C10.5089 9.03125 10.7188 9.24113 10.7188 9.5C10.7188 9.75887 10.5089 9.96875 10.25 9.96875ZM10.25 7.71875H7.75C7.49113 7.71875 7.28125 7.50887 7.28125 7.25C7.28125 6.99113 7.49113 6.78125 7.75 6.78125H10.25C10.5089 6.78125 10.7188 6.99113 10.7188 7.25C10.7188 7.50887 10.5089 7.71875 10.25 7.71875ZM10.25 5.71875H7.75C7.49113 5.71875 7.28125 5.50887 7.28125 5.25C7.28125 4.99113 7.49113 4.78125 7.75 4.78125H10.25C10.5089 4.78125 10.7188 4.99113 10.7188 5.25C10.7188 5.50887 10.5089 5.71875 10.25 5.71875ZM10.25 3.46875H3.25C2.99113 3.46875 2.78125 3.25887 2.78125 3C2.78125 2.74113 2.99113 2.53125 3.25 2.53125H10.25C10.5089 2.53125 10.7188 2.74113 10.7188 3C10.7188 3.25887 10.5089 3.46875 10.25 3.46875Z" fill="#9AA5B1"/>
<path d="M3.71875 5.46875H5.28125V9.03125H3.71875V5.46875Z" fill="#9AA5B1"/>
</g>
<defs>
<clipPath id="clip0_402_2542">
<rect width="16" height="16" fill="white" transform="translate(0 0.5)"/>
</clipPath>
</defs>
</svg>
