<svg width="16" height="16" viewBox="0 0 16 16" fill="none" xmlns="http://www.w3.org/2000/svg">
<g clip-path="url(#clip0_2688_10391)">
<path d="M10.9105 5.23438H5.09015C4.67546 5.23438 4.33789 5.57787 4.33789 6.00012V12.8656C4.33789 13.2877 4.67546 13.6312 5.09015 13.6312H10.9103C11.325 13.6312 11.6626 13.2877 11.6626 12.8656V6.00012C11.6626 5.57787 11.3252 5.23438 10.9105 5.23438ZM7.49563 11.9841H5.70847V11.5665H7.49563V11.9841ZM9.51539 10.4222H5.70847V10.0047H9.51539V10.4222ZM10.2922 8.86073H5.70847V8.44314H10.2922V8.86073ZM10.2922 7.29862H5.70847V6.88116H10.2922V7.29862Z" fill="white"/>
<path d="M2.4845 6.94752C2.23463 6.94752 2.03125 7.15455 2.03125 7.40896V10.948C2.03125 11.2025 2.23463 11.4094 2.4845 11.4094H2.94796C3.19771 11.4094 3.40108 11.2025 3.40108 10.948V7.40871C3.40108 7.1543 3.19771 6.94727 2.94796 6.94727L2.4845 6.94752Z" fill="white"/>
<path d="M15.4485 8.02046L15.4569 7.9417C15.4843 7.69221 15.498 7.43768 15.498 7.18503C15.498 6.45658 15.3847 5.73708 15.1609 5.04669C14.4371 2.81497 12.592 1.48724 12.0446 1.13404C9.73266 -0.381073 6.43506 -0.377671 4.02555 1.14223C3.63921 1.38593 1.67489 2.71984 0.922372 5.04757C0.609874 6.01531 0.585303 6.92823 0.585303 7.18528C0.585303 7.39156 0.594628 7.59972 0.612899 7.80436L0.625373 7.94296L0.666074 7.93906C0.254534 8.22484 0 8.67456 0 9.19144C0 9.68829 0.235129 10.1231 0.618947 10.4103V12.2111C0.618947 13.7617 1.93786 15.656 3.47742 15.656H5.78221C5.88831 15.8606 6.10328 16 6.35643 16H8.01758C8.37368 16 8.66349 15.7203 8.66349 15.3765V15.2394C8.66349 14.8957 8.37368 14.6159 8.01758 14.6159H6.35643C6.10479 14.6159 5.88882 14.7569 5.78221 14.9599H3.47742C2.32647 14.9599 1.30279 13.4226 1.30279 12.2111V10.7208L1.62146 10.791V7.59203L1.29082 7.66474C1.27847 7.50559 1.26914 7.34506 1.26914 7.18503C1.26914 6.95431 1.29082 6.134 1.57194 5.26481C2.14943 3.47777 3.52644 2.33678 4.14122 1.89941C4.25702 1.99744 4.37295 2.09585 4.48951 2.19388C4.74757 2.41188 5.00601 2.63 5.25941 2.84673C6.82291 1.62169 9.23305 1.62169 10.7967 2.84622C11.043 2.63201 11.2897 2.4091 11.5365 2.18632C11.6549 2.07934 11.7736 1.97299 11.892 1.86664C12.5386 2.32166 13.9292 3.46971 14.5117 5.26531C14.7125 5.88489 14.8144 6.53093 14.8144 7.18528C14.8144 7.35363 14.8053 7.52235 14.7917 7.68982C14.7637 7.68238 14.7385 7.67129 14.7098 7.66499L14.3788 7.59229V10.791L14.7098 10.7181C15.4815 10.5482 15.9999 9.93501 15.9999 9.19144C15.9999 8.72308 15.7937 8.30713 15.4485 8.02046V8.02046Z" fill="white"/>
<path d="M13.5162 6.94727H13.0527C12.803 6.94727 12.5996 7.1543 12.5996 7.40871V10.9478C12.5996 11.2023 12.803 11.4092 13.0527 11.4092H13.5162C13.7661 11.4092 13.9694 11.2023 13.9694 10.9478V7.40845C13.9694 7.15404 13.7661 6.94727 13.5162 6.94727V6.94727Z" fill="white"/>
</g>
<defs>
<clipPath id="clip0_2688_10391">
<rect width="16" height="16" fill="white"/>
</clipPath>
</defs>
</svg>
