<svg width="16" height="17" viewBox="0 0 16 17" fill="none" xmlns="http://www.w3.org/2000/svg">
<g clip-path="url(#clip0_2688_10966)">
<path d="M10.9105 5.73389H5.09015C4.67546 5.73389 4.33789 6.07738 4.33789 6.49963V13.3651C4.33789 13.7872 4.67546 14.1307 5.09015 14.1307H10.9103C11.325 14.1307 11.6626 13.7872 11.6626 13.3651V6.49963C11.6626 6.07738 11.3252 5.73389 10.9105 5.73389ZM7.49563 12.4836H5.70847V12.066H7.49563V12.4836ZM9.51539 10.9217H5.70847V10.5043H9.51539V10.9217ZM10.2922 9.36024H5.70847V8.94266H10.2922V9.36024ZM10.2922 7.79813H5.70847V7.38067H10.2922V7.79813Z" fill="#9AA5B1"/>
<path d="M2.4845 7.44801C2.23463 7.44801 2.03125 7.65504 2.03125 7.90945V11.4485C2.03125 11.703 2.23463 11.9099 2.4845 11.9099H2.94796C3.19771 11.9099 3.40108 11.703 3.40108 11.4485V7.90919C3.40108 7.65478 3.19771 7.44775 2.94796 7.44775L2.4845 7.44801Z" fill="#9AA5B1"/>
<path d="M15.4485 8.52046L15.4569 8.4417C15.4843 8.19221 15.498 7.93768 15.498 7.68503C15.498 6.95658 15.3847 6.23708 15.1609 5.54669C14.4371 3.31497 12.592 1.98724 12.0446 1.63404C9.73266 0.118927 6.43506 0.122329 4.02555 1.64223C3.63921 1.88593 1.67489 3.21984 0.922372 5.54757C0.609874 6.51531 0.585303 7.42823 0.585303 7.68528C0.585303 7.89156 0.594628 8.09972 0.612899 8.30436L0.625373 8.44296L0.666074 8.43906C0.254534 8.72484 0 9.17456 0 9.69144C0 10.1883 0.235129 10.6231 0.618947 10.9103V12.7111C0.618947 14.2617 1.93786 16.156 3.47742 16.156H5.78221C5.88831 16.3606 6.10328 16.5 6.35643 16.5H8.01758C8.37368 16.5 8.66349 16.2203 8.66349 15.8765V15.7394C8.66349 15.3957 8.37368 15.1159 8.01758 15.1159H6.35643C6.10479 15.1159 5.88882 15.2569 5.78221 15.4599H3.47742C2.32647 15.4599 1.30279 13.9226 1.30279 12.7111V11.2208L1.62146 11.291V8.09203L1.29082 8.16474C1.27847 8.00559 1.26914 7.84506 1.26914 7.68503C1.26914 7.45431 1.29082 6.634 1.57194 5.76481C2.14943 3.97777 3.52644 2.83678 4.14122 2.39941C4.25702 2.49744 4.37295 2.59585 4.48951 2.69388C4.74757 2.91188 5.00601 3.13 5.25941 3.34673C6.82291 2.12169 9.23305 2.12169 10.7967 3.34622C11.043 3.13201 11.2897 2.9091 11.5365 2.68632C11.6549 2.57934 11.7736 2.47299 11.892 2.36664C12.5386 2.82166 13.9292 3.96971 14.5117 5.76531C14.7125 6.38489 14.8144 7.03093 14.8144 7.68528C14.8144 7.85363 14.8053 8.02235 14.7917 8.18982C14.7638 8.18238 14.7385 8.17129 14.7098 8.16499L14.3788 8.09229V11.291L14.7098 11.2181C15.4815 11.0482 15.9999 10.435 15.9999 9.69144C15.9999 9.22307 15.7937 8.80713 15.4485 8.52046Z" fill="#9AA5B1"/>
<path d="M13.5162 7.44775H13.0527C12.803 7.44775 12.5996 7.65478 12.5996 7.90919V11.4482C12.5996 11.7028 12.803 11.9097 13.0527 11.9097H13.5162C13.7661 11.9097 13.9694 11.7028 13.9694 11.4482V7.90894C13.9694 7.65453 13.7661 7.44775 13.5162 7.44775Z" fill="#9AA5B1"/>
</g>
<defs>
<clipPath id="clip0_2688_10966">
<rect width="16" height="16" fill="white" transform="translate(0 0.5)"/>
</clipPath>
</defs>
</svg>
