<svg width="16" height="17" viewBox="0 0 16 17" fill="none" xmlns="http://www.w3.org/2000/svg">
<g clip-path="url(#clip0_1619_11471)">
<path d="M9.875 1.4375H9.32616C9.1325 0.891844 8.61112 0.5 8 0.5C7.38888 0.5 6.8675 0.891844 6.67384 1.4375H6.125C5.34956 1.4375 4.71875 2.06831 4.71875 2.84375C4.71875 3.10284 4.92841 3.3125 5.1875 3.3125H10.8125C11.0716 3.3125 11.2812 3.10284 11.2812 2.84375C11.2812 2.06831 10.6504 1.4375 9.875 1.4375Z" fill="#9AA5B1"/>
<path d="M12.6875 2.375H12.1713C12.2022 2.52653 12.2188 2.68325 12.2188 2.84375C12.2188 3.61919 11.5879 4.25 10.8125 4.25H5.1875C4.41206 4.25 3.78125 3.61919 3.78125 2.84375C3.78125 2.68325 3.79778 2.52653 3.82869 2.375H3.3125C2.53706 2.375 1.90625 3.00581 1.90625 3.78125V15.0938C1.90625 15.8692 2.53706 16.5 3.3125 16.5H12.6875C13.4629 16.5 14.0938 15.8692 14.0938 15.0938V3.78125C14.0938 3.00581 13.4629 2.375 12.6875 2.375ZM6.59375 13.625H4.71875C4.45966 13.625 4.25 13.4153 4.25 13.1562C4.25 12.8972 4.45966 12.6875 4.71875 12.6875H6.59375C6.85284 12.6875 7.0625 12.8972 7.0625 13.1562C7.0625 13.4153 6.85284 13.625 6.59375 13.625ZM6.59375 10.3438H4.71875C4.45966 10.3438 4.25 10.1341 4.25 9.875C4.25 9.61591 4.45966 9.40625 4.71875 9.40625H6.59375C6.85284 9.40625 7.0625 9.61591 7.0625 9.875C7.0625 10.1341 6.85284 10.3438 6.59375 10.3438ZM6.59375 7.0625H4.71875C4.45966 7.0625 4.25 6.85284 4.25 6.59375C4.25 6.33466 4.45966 6.125 4.71875 6.125H6.59375C6.85284 6.125 7.0625 6.33466 7.0625 6.59375C7.0625 6.85284 6.85284 7.0625 6.59375 7.0625ZM11.1439 13.7623C11.327 13.9454 11.327 14.2421 11.1439 14.4252C11.0523 14.5167 10.9324 14.5625 10.8125 14.5625C10.6926 14.5625 10.5726 14.5167 10.4811 14.4252L9.875 13.8191L9.26891 14.4252C9.17734 14.5167 9.05741 14.5625 8.9375 14.5625C8.81759 14.5625 8.69762 14.5167 8.60609 14.4252C8.423 14.2421 8.423 13.9454 8.60609 13.7623L9.21216 13.1562L8.60606 12.5502C8.42297 12.3671 8.42297 12.0704 8.60606 11.8873C8.78916 11.7042 9.08581 11.7042 9.26891 11.8873L9.875 12.4934L10.4811 11.8873C10.6642 11.7042 10.9608 11.7042 11.1439 11.8873C11.327 12.0704 11.327 12.3671 11.1439 12.5502L10.5378 13.1562L11.1439 13.7623ZM11.6127 9.26891L10.2064 10.6752C10.1148 10.7667 9.99491 10.8125 9.875 10.8125C9.75509 10.8125 9.63512 10.7667 9.54359 10.6752L8.60609 9.73766C8.423 9.55456 8.423 9.25791 8.60609 9.07481C8.78919 8.89172 9.08584 8.89172 9.26894 9.07481L9.875 9.68091L10.9498 8.60606C11.1329 8.42297 11.4296 8.42297 11.6127 8.60606C11.7958 8.78916 11.7958 9.08581 11.6127 9.26891ZM11.6127 6.45641L10.2064 7.86266C10.1148 7.95422 9.99491 8 9.875 8C9.75509 8 9.63512 7.95422 9.54359 7.86266L8.60609 6.92516C8.423 6.74206 8.423 6.44541 8.60609 6.26231C8.78919 6.07922 9.08584 6.07922 9.26894 6.26231L9.875 6.86841L10.9498 5.79356C11.1329 5.61047 11.4296 5.61047 11.6127 5.79356C11.7958 5.97666 11.7958 6.27331 11.6127 6.45641Z" fill="#9AA5B1"/>
</g>
<defs>
<clipPath id="clip0_1619_11471">
<rect width="16" height="16" fill="white" transform="translate(0 0.5)"/>
</clipPath>
</defs>
</svg>
