<svg width="16" height="16" viewBox="0 0 16 16" fill="none" xmlns="http://www.w3.org/2000/svg">
<path d="M9.875 0.9375H9.32616C9.1325 0.391844 8.61112 0 8 0C7.38888 0 6.8675 0.391844 6.67384 0.9375H6.125C5.34956 0.9375 4.71875 1.56831 4.71875 2.34375C4.71875 2.60284 4.92841 2.8125 5.1875 2.8125H10.8125C11.0716 2.8125 11.2812 2.60284 11.2812 2.34375C11.2812 1.56831 10.6504 0.9375 9.875 0.9375Z" fill="white"/>
<path d="M12.6875 1.875H12.1713C12.2022 2.02653 12.2188 2.18325 12.2188 2.34375C12.2188 3.11919 11.5879 3.75 10.8125 3.75H5.1875C4.41206 3.75 3.78125 3.11919 3.78125 2.34375C3.78125 2.18325 3.79778 2.02653 3.82869 1.875H3.3125C2.53706 1.875 1.90625 2.50581 1.90625 3.28125V14.5938C1.90625 15.3692 2.53706 16 3.3125 16H12.6875C13.4629 16 14.0938 15.3692 14.0938 14.5938V3.28125C14.0938 2.50581 13.4629 1.875 12.6875 1.875ZM6.59375 13.125H4.71875C4.45966 13.125 4.25 12.9153 4.25 12.6562C4.25 12.3972 4.45966 12.1875 4.71875 12.1875H6.59375C6.85284 12.1875 7.0625 12.3972 7.0625 12.6562C7.0625 12.9153 6.85284 13.125 6.59375 13.125ZM6.59375 9.84375H4.71875C4.45966 9.84375 4.25 9.63409 4.25 9.375C4.25 9.11591 4.45966 8.90625 4.71875 8.90625H6.59375C6.85284 8.90625 7.0625 9.11591 7.0625 9.375C7.0625 9.63409 6.85284 9.84375 6.59375 9.84375ZM6.59375 6.5625H4.71875C4.45966 6.5625 4.25 6.35284 4.25 6.09375C4.25 5.83466 4.45966 5.625 4.71875 5.625H6.59375C6.85284 5.625 7.0625 5.83466 7.0625 6.09375C7.0625 6.35284 6.85284 6.5625 6.59375 6.5625ZM11.1439 13.2623C11.327 13.4454 11.327 13.7421 11.1439 13.9252C11.0523 14.0167 10.9324 14.0625 10.8125 14.0625C10.6926 14.0625 10.5726 14.0167 10.4811 13.9252L9.875 13.3191L9.26891 13.9252C9.17734 14.0167 9.05741 14.0625 8.9375 14.0625C8.81759 14.0625 8.69762 14.0167 8.60609 13.9252C8.423 13.7421 8.423 13.4454 8.60609 13.2623L9.21216 12.6562L8.60606 12.0502C8.42297 11.8671 8.42297 11.5704 8.60606 11.3873C8.78916 11.2042 9.08581 11.2042 9.26891 11.3873L9.875 11.9934L10.4811 11.3873C10.6642 11.2042 10.9608 11.2042 11.1439 11.3873C11.327 11.5704 11.327 11.8671 11.1439 12.0502L10.5378 12.6562L11.1439 13.2623ZM11.6127 8.76891L10.2064 10.1752C10.1148 10.2667 9.99491 10.3125 9.875 10.3125C9.75509 10.3125 9.63512 10.2667 9.54359 10.1752L8.60609 9.23766C8.423 9.05456 8.423 8.75791 8.60609 8.57481C8.78919 8.39172 9.08584 8.39172 9.26894 8.57481L9.875 9.18091L10.9498 8.10606C11.1329 7.92297 11.4296 7.92297 11.6127 8.10606C11.7958 8.28916 11.7958 8.58581 11.6127 8.76891ZM11.6127 5.95641L10.2064 7.36266C10.1148 7.45422 9.99491 7.5 9.875 7.5C9.75509 7.5 9.63512 7.45422 9.54359 7.36266L8.60609 6.42516C8.423 6.24206 8.423 5.94541 8.60609 5.76231C8.78919 5.57922 9.08584 5.57922 9.26894 5.76231L9.875 6.36841L10.9498 5.29356C11.1329 5.11047 11.4296 5.11047 11.6127 5.29356C11.7958 5.47666 11.7958 5.77331 11.6127 5.95641Z" fill="white"/>
</svg>
