<svg width="16" height="17" viewBox="0 0 16 17" fill="none" xmlns="http://www.w3.org/2000/svg">
<g clip-path="url(#clip0_402_2531)">
<path d="M3.82862 8.96875H0C0.151219 11.5495 1.58334 13.8037 3.61937 15.1496L5.50513 11.8837C4.58531 11.2034 3.96294 10.1628 3.82862 8.96875Z" fill="#9AA5B1"/>
<path d="M3.82325 8.03045C3.95819 6.85114 4.58578 5.81195 5.51309 5.12973L3.61931 1.84961C1.58331 3.19545 0.151219 5.44977 0 8.03045H3.82325Z" fill="#9AA5B1"/>
<path d="M12.1726 8.96875C12.0383 10.1628 11.4159 11.2034 10.4961 11.8837L12.3818 15.1496C14.4179 13.8037 15.85 11.5495 16.0012 8.96875H12.1726Z" fill="#9AA5B1"/>
<path d="M9.68837 12.3613C9.17062 12.5886 8.60134 12.719 8.00059 12.719C7.39984 12.719 6.83056 12.5886 6.31281 12.3613L4.43359 15.616C5.50834 16.157 6.71747 16.5003 8.00059 16.5003C9.28371 16.5003 10.4928 16.157 11.5676 15.616L9.68837 12.3613Z" fill="#9AA5B1"/>
<path d="M10.543 5.12973C11.4703 5.81198 12.0979 6.85114 12.2328 8.03045H16.0011C15.8498 5.44977 14.4727 3.19545 12.4367 1.84961L10.543 5.12973Z" fill="#9AA5B1"/>
<path d="M6.3245 4.65947C6.60184 4.5385 6.88922 4.43609 7.195 4.37647L7.58134 3.60284C7.73972 3.28516 8.26159 3.28516 8.41997 3.60284L8.80631 4.37647C9.11209 4.43609 9.39947 4.53853 9.67681 4.65947L11.5677 1.38428C10.4929 0.843281 9.28378 0.5 8.00066 0.5C6.71753 0.5 5.50838 0.843281 4.43359 1.38428L6.3245 4.65947Z" fill="#9AA5B1"/>
<path d="M11.2812 8.50008C11.2812 6.87273 10.0563 5.48158 8.43122 5.26461C8.11156 5.2218 8.042 4.91923 8 4.86133C7.95778 4.91958 7.88891 5.22173 7.56878 5.26461C5.94372 5.48158 4.71875 6.87273 4.71875 8.50008C4.71875 10.3092 6.19091 11.7813 8 11.7813C9.80909 11.7813 11.2812 10.3092 11.2812 8.50008ZM7.0625 8.03133C6.80341 8.03133 6.59375 7.82167 6.59375 7.56258C6.59375 6.78714 7.22456 6.15633 8 6.15633C8.77544 6.15633 9.40625 6.78714 9.40625 7.56258C9.40625 8.15445 9.03181 8.68686 8.47469 8.88689C8.47469 9.14552 8.26181 9.39639 8.00319 9.39639C7.74409 9.39639 7.53122 9.22792 7.53122 8.96883C7.53122 8.49595 7.78344 8.13845 8.15834 8.00433C8.34378 7.93748 8.46875 7.76033 8.46875 7.56258C8.46875 7.30395 8.25863 7.09383 8 7.09383C7.74137 7.09383 7.53125 7.30395 7.53125 7.56258C7.53125 7.82167 7.32159 8.03133 7.0625 8.03133ZM7.53125 10.3751C7.53125 10.1161 7.74113 9.90633 8 9.90633C8.25887 9.90633 8.46875 10.1161 8.46875 10.3751C8.46875 10.634 8.25887 10.8438 8 10.8438C7.74113 10.8438 7.53125 10.634 7.53125 10.3751Z" fill="#9AA5B1"/>
</g>
<defs>
<clipPath id="clip0_402_2531">
<rect width="16" height="16" fill="white" transform="translate(0 0.5)"/>
</clipPath>
</defs>
</svg>
