<svg width="16" height="16" viewBox="0 0 16 16" fill="none" xmlns="http://www.w3.org/2000/svg">
<g clip-path="url(#clip0_403_3762)">
<path d="M3.82862 8.46875H0C0.151219 11.0495 1.58334 13.3037 3.61937 14.6496L5.50513 11.3837C4.58531 10.7034 3.96294 9.66278 3.82862 8.46875Z" fill="white"/>
<path d="M3.82325 7.53143C3.95819 6.35212 4.58578 5.31293 5.51309 4.63071L3.61931 1.35059C1.58331 2.69643 0.151219 4.95074 0 7.53143H3.82325Z" fill="white"/>
<path d="M12.1726 8.46875C12.0383 9.66278 11.4159 10.7034 10.4961 11.3837L12.3818 14.6496C14.4179 13.3037 15.85 11.0495 16.0012 8.46875H12.1726Z" fill="white"/>
<path d="M9.68837 11.8613C9.17062 12.0886 8.60134 12.219 8.00059 12.219C7.39984 12.219 6.83056 12.0886 6.31281 11.8613L4.43359 15.116C5.50834 15.657 6.71747 16.0003 8.00059 16.0003C9.28371 16.0003 10.4928 15.657 11.5676 15.116L9.68837 11.8613Z" fill="white"/>
<path d="M10.543 4.63071C11.4703 5.31296 12.0979 6.35212 12.2328 7.53143H16.0011C15.8498 4.95074 14.4727 2.69643 12.4367 1.35059L10.543 4.63071Z" fill="white"/>
<path d="M6.3245 4.15947C6.60184 4.0385 6.88922 3.93609 7.195 3.87647L7.58134 3.10284C7.73972 2.78516 8.26159 2.78516 8.41997 3.10284L8.80631 3.87647C9.11209 3.93609 9.39947 4.03853 9.67681 4.15947L11.5677 0.884281C10.4929 0.343281 9.28378 0 8.00066 0C6.71753 0 5.50838 0.343281 4.43359 0.884281L6.3245 4.15947Z" fill="white"/>
<path d="M11.2812 7.9991C11.2812 6.37176 10.0563 4.9806 8.43122 4.76363C8.11156 4.72082 8.042 4.41826 8 4.36035C7.95778 4.4186 7.88891 4.72076 7.56878 4.76363C5.94372 4.9806 4.71875 6.37176 4.71875 7.9991C4.71875 9.8082 6.19091 11.2804 8 11.2804C9.80909 11.2804 11.2812 9.8082 11.2812 7.9991ZM7.0625 7.53035C6.80341 7.53035 6.59375 7.3207 6.59375 7.0616C6.59375 6.28616 7.22456 5.65535 8 5.65535C8.77544 5.65535 9.40625 6.28616 9.40625 7.0616C9.40625 7.65348 9.03181 8.18588 8.47469 8.38591C8.47469 8.64454 8.26181 8.89541 8.00319 8.89541C7.74409 8.89541 7.53122 8.72695 7.53122 8.46785C7.53122 7.99498 7.78344 7.63748 8.15834 7.50335C8.34378 7.43651 8.46875 7.25935 8.46875 7.0616C8.46875 6.80298 8.25863 6.59285 8 6.59285C7.74137 6.59285 7.53125 6.80298 7.53125 7.0616C7.53125 7.3207 7.32159 7.53035 7.0625 7.53035ZM7.53125 9.8741C7.53125 9.61516 7.74113 9.40535 8 9.40535C8.25887 9.40535 8.46875 9.61516 8.46875 9.8741C8.46875 10.133 8.25887 10.3429 8 10.3429C7.74113 10.3429 7.53125 10.133 7.53125 9.8741Z" fill="white"/>
</g>
<defs>
<clipPath id="clip0_403_3762">
<rect width="16" height="16" fill="white"/>
</clipPath>
</defs>
</svg>
