<svg width="16" height="16" viewBox="0 0 16 16" fill="none" xmlns="http://www.w3.org/2000/svg">
<g clip-path="url(#clip0_479_9769)">
<path d="M8 5.3125C9.46701 5.3125 10.6562 4.12326 10.6562 2.65625C10.6562 1.18924 9.46701 0 8 0C6.53299 0 5.34375 1.18924 5.34375 2.65625C5.34375 4.12326 6.53299 5.3125 8 5.3125Z" fill="white"/>
<path d="M9.9517 5.67188C9.38929 6.03709 8.71895 6.24953 7.99985 6.24953C7.28076 6.24953 6.61042 6.03709 6.04801 5.67188C5.42629 5.90947 4.84985 6.26 4.34863 6.70987L7.99985 8.07909L11.6511 6.70987C11.1499 6.26 10.5734 5.90944 9.9517 5.67188Z" fill="white"/>
<path d="M13.625 9.6875H13.3125C13.0536 9.6875 12.8438 9.89737 12.8438 10.1562V11.4062C12.8438 11.6651 13.0536 11.875 13.3125 11.875H13.625C14.2291 11.875 14.7188 11.3853 14.7188 10.7812C14.7188 10.1772 14.2291 9.6875 13.625 9.6875Z" fill="white"/>
<path d="M2.733 7.32179C2.60663 7.40939 2.53125 7.55332 2.53125 7.70707V8.75067H2.6875C3.46291 8.75067 4.09375 9.38151 4.09375 10.1569V11.4069C4.09375 12.1823 3.46291 12.8132 2.6875 12.8132H2.53125V13.8008C2.53125 13.9962 2.65247 14.1711 2.83541 14.2397L7.53125 16.0007V8.90567L3.16459 7.26817C3.02062 7.21413 2.85934 7.23417 2.733 7.32179Z" fill="white"/>
<path d="M11.9062 11.4069V10.1569C11.9062 9.38151 12.5371 8.75067 13.3125 8.75067H13.4688V7.70707C13.4688 7.55332 13.3934 7.40939 13.267 7.32179C13.1406 7.23417 12.9793 7.21413 12.8354 7.26817L8.46875 8.90567V16.0007L13.1646 14.2397C13.3475 14.1711 13.4688 13.9962 13.4688 13.8008V12.8132H13.3125C12.5371 12.8132 11.9062 12.1823 11.9062 11.4069Z" fill="white"/>
<path d="M3.15625 11.4062V10.1562C3.15625 9.89737 2.94638 9.6875 2.6875 9.6875H2.375C1.77094 9.6875 1.28125 10.1772 1.28125 10.7812C1.28125 11.3853 1.77094 11.875 2.375 11.875H2.6875C2.94638 11.875 3.15625 11.6651 3.15625 11.4062Z" fill="white"/>
</g>
<defs>
<clipPath id="clip0_479_9769">
<rect width="16" height="16" fill="white"/>
</clipPath>
</defs>
</svg>
