<svg width="16" height="17" viewBox="0 0 16 17" fill="none" xmlns="http://www.w3.org/2000/svg">
<g clip-path="url(#clip0_753_2977)">
<path d="M8 5.8125C9.46701 5.8125 10.6562 4.62326 10.6562 3.15625C10.6562 1.68924 9.46701 0.5 8 0.5C6.53299 0.5 5.34375 1.68924 5.34375 3.15625C5.34375 4.62326 6.53299 5.8125 8 5.8125Z" fill="#9AA5B1"/>
<path d="M9.9517 6.17188C9.38929 6.53709 8.71895 6.74953 7.99985 6.74953C7.28076 6.74953 6.61042 6.53709 6.04801 6.17188C5.42629 6.40947 4.84985 6.76 4.34863 7.20987L7.99985 8.57909L11.6511 7.20987C11.1499 6.76 10.5734 6.40944 9.9517 6.17188Z" fill="#9AA5B1"/>
<path d="M13.625 10.1875H13.3125C13.0536 10.1875 12.8438 10.3974 12.8438 10.6562V11.9062C12.8438 12.1651 13.0536 12.375 13.3125 12.375H13.625C14.2291 12.375 14.7188 11.8853 14.7188 11.2812C14.7188 10.6772 14.2291 10.1875 13.625 10.1875Z" fill="#9AA5B1"/>
<path d="M2.733 7.82179C2.60663 7.90939 2.53125 8.05332 2.53125 8.20707V9.25067H2.6875C3.46291 9.25067 4.09375 9.88151 4.09375 10.6569V11.9069C4.09375 12.6823 3.46291 13.3132 2.6875 13.3132H2.53125V14.3008C2.53125 14.4962 2.65247 14.6711 2.83541 14.7397L7.53125 16.5007V9.40567L3.16459 7.76817C3.02062 7.71413 2.85934 7.73417 2.733 7.82179Z" fill="#9AA5B1"/>
<path d="M11.9062 11.9069V10.6569C11.9062 9.88151 12.5371 9.25067 13.3125 9.25067H13.4688V8.20707C13.4688 8.05332 13.3934 7.90939 13.267 7.82179C13.1406 7.73417 12.9793 7.71413 12.8354 7.76817L8.46875 9.40567V16.5007L13.1646 14.7397C13.3475 14.6711 13.4688 14.4962 13.4688 14.3008V13.3132H13.3125C12.5371 13.3132 11.9062 12.6823 11.9062 11.9069Z" fill="#9AA5B1"/>
<path d="M3.15625 11.9062V10.6562C3.15625 10.3974 2.94638 10.1875 2.6875 10.1875H2.375C1.77094 10.1875 1.28125 10.6772 1.28125 11.2812C1.28125 11.8853 1.77094 12.375 2.375 12.375H2.6875C2.94638 12.375 3.15625 12.1651 3.15625 11.9062Z" fill="#9AA5B1"/>
</g>
<defs>
<clipPath id="clip0_753_2977">
<rect width="16" height="16" fill="white" transform="translate(0 0.5)"/>
</clipPath>
</defs>
</svg>
