<svg width="16" height="16" viewBox="0 0 16 16" fill="none" xmlns="http://www.w3.org/2000/svg">
<g clip-path="url(#clip0_403_2933)">
<path d="M15.8853 9.53659L14.8748 8.37162C15.6032 7.46044 16 6.33387 16 5.15625C16 2.31309 13.6869 0 10.8438 0C8.00056 0 5.6875 2.31309 5.6875 5.15625C5.6875 7.99941 8.00059 10.3125 10.8438 10.3125H15.5312C15.7148 10.3125 15.8815 10.2053 15.9577 10.0384C16.0339 9.87138 16.0056 9.67528 15.8853 9.53659ZM10.8438 8.34375C10.5849 8.34375 10.375 8.13387 10.375 7.875C10.375 7.61613 10.5849 7.40625 10.8438 7.40625C11.1026 7.40625 11.3125 7.61613 11.3125 7.875C11.3125 8.13387 11.1027 8.34375 10.8438 8.34375ZM12.1479 4.97378C11.9195 5.21434 11.6285 5.38562 11.3125 5.47144V6.45581C11.3125 6.71469 11.1027 6.92456 10.8438 6.92456C10.5849 6.92456 10.375 6.71469 10.375 6.45581V5.06547C10.375 4.80659 10.5849 4.59672 10.8438 4.59672C11.082 4.59672 11.3037 4.50138 11.4681 4.32828C11.6322 4.15534 11.7158 3.92847 11.7034 3.68944C11.6802 3.24191 11.3105 2.88422 10.8618 2.87519C10.8559 2.87506 10.85 2.875 10.8442 2.875C10.4156 2.875 10.0505 3.19034 9.99125 3.61522C9.98572 3.65478 9.98294 3.69537 9.98294 3.73587C9.98294 3.99475 9.77306 4.20463 9.51419 4.20463C9.25531 4.20463 9.04544 3.99475 9.04544 3.73587C9.04544 3.65219 9.05128 3.56803 9.06275 3.48566C9.18844 2.58494 9.971 1.91922 10.8807 1.93788C11.8184 1.95678 12.5911 2.70481 12.6397 3.64084C12.6655 4.13916 12.4909 4.61256 12.1479 4.97378Z" fill="white"/>
<path d="M6.71876 10.3745H3.59376C3.33488 10.3745 3.12501 10.1647 3.12501 9.9058C3.12501 9.64692 3.33488 9.43705 3.59376 9.43705H6.51232C5.54373 8.4572 4.90395 7.15161 4.7747 5.70117C2.10904 5.89711 8.02851e-06 8.12848 8.02851e-06 10.8433C8.02851e-06 12.0209 0.396852 13.1475 1.12523 14.0587L0.114664 15.2236C-0.00561697 15.3623 -0.0338982 15.5584 0.0423205 15.7254C0.118539 15.8924 0.285196 15.9995 0.468758 15.9995H5.15626C7.8711 15.9995 10.1024 13.8905 10.2984 11.2249C9.13176 11.1209 8.05895 10.6865 7.17379 10.0166C7.12395 10.2219 6.93941 10.3745 6.71876 10.3745ZM6.71876 12.2495H3.59376C3.33488 12.2495 3.12501 12.0397 3.12501 11.7808C3.12501 11.5219 3.33488 11.312 3.59376 11.312H6.71876C6.97763 11.312 7.18751 11.5219 7.18751 11.7808C7.18751 12.0397 6.97763 12.2495 6.71876 12.2495Z" fill="white"/>
</g>
<defs>
<clipPath id="clip0_403_2933">
<rect width="16" height="16" fill="white"/>
</clipPath>
</defs>
</svg>
