<svg width="16" height="17" viewBox="0 0 16 17" fill="none" xmlns="http://www.w3.org/2000/svg">
<g clip-path="url(#clip0_402_2519)">
<path d="M15.8853 10.0366L14.8748 8.87162C15.6032 7.96044 16 6.83387 16 5.65625C16 2.81309 13.6869 0.5 10.8438 0.5C8.00056 0.5 5.6875 2.81309 5.6875 5.65625C5.6875 8.49941 8.00059 10.8125 10.8438 10.8125H15.5312C15.7148 10.8125 15.8815 10.7053 15.9577 10.5384C16.0339 10.3714 16.0056 10.1753 15.8853 10.0366ZM10.8438 8.84375C10.5849 8.84375 10.375 8.63387 10.375 8.375C10.375 8.11613 10.5849 7.90625 10.8438 7.90625C11.1026 7.90625 11.3125 8.11613 11.3125 8.375C11.3125 8.63387 11.1027 8.84375 10.8438 8.84375ZM12.1479 5.47378C11.9195 5.71434 11.6285 5.88562 11.3125 5.97144V6.95581C11.3125 7.21469 11.1027 7.42456 10.8438 7.42456C10.5849 7.42456 10.375 7.21469 10.375 6.95581V5.56547C10.375 5.30659 10.5849 5.09672 10.8438 5.09672C11.082 5.09672 11.3037 5.00138 11.4681 4.82828C11.6322 4.65534 11.7158 4.42847 11.7034 4.18944C11.6802 3.74191 11.3105 3.38422 10.8618 3.37519C10.8559 3.37506 10.85 3.375 10.8442 3.375C10.4156 3.375 10.0505 3.69034 9.99125 4.11522C9.98572 4.15478 9.98294 4.19537 9.98294 4.23587C9.98294 4.49475 9.77306 4.70463 9.51419 4.70463C9.25531 4.70463 9.04544 4.49475 9.04544 4.23587C9.04544 4.15219 9.05128 4.06803 9.06275 3.98566C9.18844 3.08494 9.971 2.41922 10.8807 2.43788C11.8184 2.45678 12.5911 3.20481 12.6397 4.14084C12.6655 4.63916 12.4909 5.11256 12.1479 5.47378Z" fill="#9AA5B1"/>
<path d="M6.71876 10.8745H3.59376C3.33488 10.8745 3.12501 10.6647 3.12501 10.4058C3.12501 10.1469 3.33488 9.93705 3.59376 9.93705H6.51232C5.54373 8.9572 4.90395 7.65161 4.7747 6.20117C2.10904 6.39711 8.02851e-06 8.62848 8.02851e-06 11.3433C8.02851e-06 12.5209 0.396852 13.6475 1.12523 14.5587L0.114664 15.7236C-0.00561697 15.8623 -0.0338982 16.0584 0.0423205 16.2254C0.118539 16.3924 0.285196 16.4995 0.468758 16.4995H5.15626C7.8711 16.4995 10.1024 14.3905 10.2984 11.7249C9.13176 11.6209 8.05895 11.1865 7.17379 10.5166C7.12395 10.7219 6.93941 10.8745 6.71876 10.8745ZM6.71876 12.7495H3.59376C3.33488 12.7495 3.12501 12.5397 3.12501 12.2808C3.12501 12.0219 3.33488 11.812 3.59376 11.812H6.71876C6.97763 11.812 7.18751 12.0219 7.18751 12.2808C7.18751 12.5397 6.97763 12.7495 6.71876 12.7495Z" fill="#9AA5B1"/>
</g>
<defs>
<clipPath id="clip0_402_2519">
<rect width="16" height="16" fill="white" transform="translate(0 0.5)"/>
</clipPath>
</defs>
</svg>
