<svg width="32" height="33" viewBox="0 0 32 33" fill="none" xmlns="http://www.w3.org/2000/svg">
<circle cx="16" cy="16.5" r="16" fill="#324ECF"/>
<g clip-path="url(#clip0_505_4828)">
<path d="M16.2531 16.2577C16.2512 16.2557 16.2506 16.2529 16.2486 16.2509L14.2422 14.2445V12.9839C14.2422 12.8905 14.2052 12.8012 14.1392 12.7353L12.0299 10.6025C11.9296 10.5023 11.7782 10.4717 11.6467 10.5263C11.5152 10.5805 11.4297 10.709 11.4297 10.8511V11.9058H10.3516C10.2095 11.9057 10.0811 11.9912 10.0269 12.1227C9.97227 12.2542 10.0025 12.4053 10.1031 12.5059L12.2359 14.6387C12.3018 14.7046 12.3911 14.7417 12.4844 14.7417H13.7451L15.7515 16.748C15.7535 16.75 15.7562 16.7506 15.7583 16.7526C15.8952 16.8832 16.1031 16.8849 16.2418 16.7526C16.3878 16.6132 16.3846 16.3954 16.2531 16.2577Z" fill="white"/>
<path d="M15.999 10.5001C15.0994 10.5001 14.2489 10.729 13.483 11.0865L14.5615 12.1649C15.0141 12.0144 15.4965 11.9298 15.999 11.9298C18.519 11.9298 20.5693 13.9801 20.5693 16.5C20.5693 19.02 18.519 21.0703 15.999 21.0703C13.479 21.0703 11.4287 19.02 11.4287 16.5C11.4287 15.9975 11.5133 15.5151 11.6638 15.0625L10.5854 13.9841C10.2279 14.75 9.99902 15.6005 9.99902 16.5C9.99902 19.7956 12.7035 22.5 15.999 22.5C19.2945 22.5 21.999 19.7956 21.999 16.5C21.999 13.2045 19.2945 10.5001 15.999 10.5001Z" fill="white"/>
<path d="M15.998 13.335C15.6264 13.335 15.2749 13.4112 14.9433 13.5294V13.953L15.7561 14.7657C15.8359 14.7546 15.9152 14.7413 15.998 14.7413C16.9672 14.7413 17.7558 15.5299 17.7558 16.4991C17.7558 17.4683 16.9672 18.2569 15.998 18.2569C15.0288 18.2569 14.2402 17.4683 14.2402 16.4991C14.2402 16.4162 14.2535 16.337 14.2647 16.2571L13.452 15.4444H13.0284C12.9102 15.7759 12.834 16.1275 12.834 16.4991C12.834 18.2438 14.2533 19.6631 15.998 19.6631C17.7428 19.6631 19.1621 18.2438 19.1621 16.4991C19.1621 14.7543 17.7428 13.335 15.998 13.335Z" fill="white"/>
</g>
<defs>
<clipPath id="clip0_505_4828">
<rect width="12" height="12" fill="white" transform="translate(10 10.5)"/>
</clipPath>
</defs>
</svg>
