<svg width="32" height="32" viewBox="0 0 32 32" fill="none" xmlns="http://www.w3.org/2000/svg">
<rect x="0.5" y="0.5" width="31" height="31" rx="3.5" fill="#D3FFDA"/>
<path d="M15.9997 9.33398C12.3263 9.33398 9.33301 12.3273 9.33301 16.0007C9.33301 19.674 12.3263 22.6673 15.9997 22.6673C19.673 22.6673 22.6663 19.674 22.6663 16.0007C22.6663 12.3273 19.673 9.33398 15.9997 9.33398ZM19.1863 14.4673L15.4063 18.2473C15.313 18.3407 15.1863 18.394 15.053 18.394C14.9197 18.394 14.793 18.3407 14.6997 18.2473L12.813 16.3607C12.6197 16.1673 12.6197 15.8473 12.813 15.654C13.0063 15.4607 13.3263 15.4607 13.5197 15.654L15.053 17.1873L18.4797 13.7607C18.673 13.5673 18.993 13.5673 19.1863 13.7607C19.3797 13.954 19.3797 14.2673 19.1863 14.4673Z" fill="#00BB1D"/>
<rect x="0.5" y="0.5" width="31" height="31" rx="3.5" stroke="#00BB1D"/>
</svg>
