<svg width="64" height="64" viewBox="0 0 64 64" fill="none" xmlns="http://www.w3.org/2000/svg">
<circle cx="32" cy="32" r="32" fill="#EEF1FB"/>
<path d="M34.667 26.666H36.0003C36.3539 26.666 36.6931 26.5255 36.9431 26.2755C37.1932 26.0254 37.3337 25.6863 37.3337 25.3327C37.3337 24.9791 37.1932 24.6399 36.9431 24.3899C36.6931 24.1398 36.3539 23.9993 36.0003 23.9993H34.667C34.3134 23.9993 33.9742 24.1398 33.7242 24.3899C33.4741 24.6399 33.3337 24.9791 33.3337 25.3327C33.3337 25.6863 33.4741 26.0254 33.7242 26.2755C33.9742 26.5255 34.3134 26.666 34.667 26.666ZM34.667 31.9993H36.0003C36.3539 31.9993 36.6931 31.8589 36.9431 31.6088C37.1932 31.3588 37.3337 31.0196 37.3337 30.666C37.3337 30.3124 37.1932 29.9733 36.9431 29.7232C36.6931 29.4732 36.3539 29.3327 36.0003 29.3327H34.667C34.3134 29.3327 33.9742 29.4732 33.7242 29.7232C33.4741 29.9733 33.3337 30.3124 33.3337 30.666C33.3337 31.0196 33.4741 31.3588 33.7242 31.6088C33.9742 31.8589 34.3134 31.9993 34.667 31.9993ZM28.0003 26.666H29.3337C29.6873 26.666 30.0264 26.5255 30.2765 26.2755C30.5265 26.0254 30.667 25.6863 30.667 25.3327C30.667 24.9791 30.5265 24.6399 30.2765 24.3899C30.0264 24.1398 29.6873 23.9993 29.3337 23.9993H28.0003C27.6467 23.9993 27.3076 24.1398 27.0575 24.3899C26.8075 24.6399 26.667 24.9791 26.667 25.3327C26.667 25.6863 26.8075 26.0254 27.0575 26.2755C27.3076 26.5255 27.6467 26.666 28.0003 26.666ZM28.0003 31.9993H29.3337C29.6873 31.9993 30.0264 31.8589 30.2765 31.6088C30.5265 31.3588 30.667 31.0196 30.667 30.666C30.667 30.3124 30.5265 29.9733 30.2765 29.7232C30.0264 29.4732 29.6873 29.3327 29.3337 29.3327H28.0003C27.6467 29.3327 27.3076 29.4732 27.0575 29.7232C26.8075 29.9733 26.667 30.3124 26.667 30.666C26.667 31.0196 26.8075 31.3588 27.0575 31.6088C27.3076 31.8589 27.6467 31.9993 28.0003 31.9993ZM44.0003 42.666H42.667V19.9993C42.667 19.6457 42.5265 19.3066 42.2765 19.0565C42.0264 18.8065 41.6873 18.666 41.3337 18.666H22.667C22.3134 18.666 21.9742 18.8065 21.7242 19.0565C21.4741 19.3066 21.3337 19.6457 21.3337 19.9993V42.666H20.0003C19.6467 42.666 19.3076 42.8065 19.0575 43.0565C18.8075 43.3066 18.667 43.6457 18.667 43.9993C18.667 44.353 18.8075 44.6921 19.0575 44.9422C19.3076 45.1922 19.6467 45.3327 20.0003 45.3327H44.0003C44.3539 45.3327 44.6931 45.1922 44.9431 44.9422C45.1932 44.6921 45.3337 44.353 45.3337 43.9993C45.3337 43.6457 45.1932 43.3066 44.9431 43.0565C44.6931 42.8065 44.3539 42.666 44.0003 42.666ZM33.3337 42.666H30.667V37.3327H33.3337V42.666ZM40.0003 42.666H36.0003V35.9993C36.0003 35.6457 35.8598 35.3066 35.6098 35.0565C35.3598 34.8065 35.0206 34.666 34.667 34.666H29.3337C28.98 34.666 28.6409 34.8065 28.3909 35.0565C28.1408 35.3066 28.0003 35.6457 28.0003 35.9993V42.666H24.0003V21.3327H40.0003V42.666Z" fill="#324ECF"/>
</svg>
