<svg width="32" height="33" viewBox="0 0 32 33" fill="none" xmlns="http://www.w3.org/2000/svg">
<circle cx="16" cy="16.5" r="16" fill="#EEF1FB"/>
<g clip-path="url(#clip0_3482_14455)">
<path d="M20.8464 13.2628L21.8044 12.3048L20.8617 11.3618L19.8369 12.3867C18.9006 11.7232 17.8081 11.3143 16.6664 11.2V9.83333H17.9997V8.5H13.9997V9.83333H15.333V11.2C14.1912 11.3143 13.0987 11.7232 12.1625 12.3867L11.1377 11.3618L10.195 12.3048L11.153 13.2628C10.2588 14.2096 9.66144 15.3976 9.43477 16.6801C9.20809 17.9625 9.36201 19.2833 9.87752 20.4793C10.393 21.6752 11.2475 22.694 12.3355 23.4098C13.4235 24.1256 14.6973 24.5071 15.9997 24.5071C17.302 24.5071 18.5758 24.1256 19.6638 23.4098C20.7518 22.694 21.6063 21.6752 22.1219 20.4793C22.6374 19.2833 22.7913 17.9625 22.5646 16.6801C22.3379 15.3976 21.7406 14.2096 20.8464 13.2628ZM15.9997 23.1667C14.9449 23.1667 13.9137 22.8539 13.0366 22.2678C12.1596 21.6818 11.476 20.8488 11.0723 19.8743C10.6687 18.8998 10.563 17.8274 10.7688 16.7928C10.9746 15.7583 11.4826 14.808 12.2284 14.0621C12.9743 13.3162 13.9246 12.8083 14.9592 12.6025C15.9938 12.3967 17.0661 12.5023 18.0407 12.906C19.0152 13.3096 19.8482 13.9932 20.4342 14.8703C21.0202 15.7473 21.333 16.7785 21.333 17.8333C21.3314 19.2473 20.769 20.603 19.7692 21.6028C18.7693 22.6027 17.4137 23.1651 15.9997 23.1667Z" fill="#324ECF"/>
<path d="M16 13.8333V17.8333H12C12 18.6245 12.2346 19.3978 12.6741 20.0556C13.1136 20.7134 13.7384 21.2261 14.4693 21.5288C15.2002 21.8316 16.0044 21.9108 16.7804 21.7565C17.5563 21.6021 18.269 21.2212 18.8284 20.6618C19.3878 20.1023 19.7688 19.3896 19.9231 18.6137C20.0775 17.8378 19.9983 17.0335 19.6955 16.3026C19.3928 15.5717 18.8801 14.947 18.2223 14.5075C17.5645 14.0679 16.7911 13.8333 16 13.8333Z" fill="#324ECF"/>
</g>
<defs>
<clipPath id="clip0_3482_14455">
<rect width="16" height="16" fill="white" transform="translate(8 8.5)"/>
</clipPath>
</defs>
</svg>
