<svg width="32" height="32" viewBox="0 0 32 32" fill="none" xmlns="http://www.w3.org/2000/svg">
<rect x="0.5" y="0.5" width="31" height="31" rx="3.5" fill="#F8F9FA"/>
<path d="M15.9997 9.33398C12.3263 9.33398 9.33301 12.3273 9.33301 16.0007C9.33301 19.674 12.3263 22.6673 15.9997 22.6673C19.673 22.6673 22.6663 19.674 22.6663 16.0007C22.6663 12.3273 19.673 9.33398 15.9997 9.33398ZM18.2397 17.534C18.433 17.7273 18.433 18.0473 18.2397 18.2407C18.1397 18.3407 18.013 18.3873 17.8863 18.3873C17.7597 18.3873 17.633 18.3407 17.533 18.2407L15.9997 16.7073L14.4663 18.2407C14.3663 18.3407 14.2397 18.3873 14.113 18.3873C13.9863 18.3873 13.8597 18.3407 13.7597 18.2407C13.5663 18.0473 13.5663 17.7273 13.7597 17.534L15.293 16.0007L13.7597 14.4673C13.5663 14.274 13.5663 13.954 13.7597 13.7607C13.953 13.5673 14.273 13.5673 14.4663 13.7607L15.9997 15.294L17.533 13.7607C17.7263 13.5673 18.0463 13.5673 18.2397 13.7607C18.433 13.954 18.433 14.274 18.2397 14.4673L16.7063 16.0007L18.2397 17.534Z" fill="#9AA5B1"/>
<rect x="0.5" y="0.5" width="31" height="31" rx="3.5" stroke="#CBD2D9"/>
</svg>
