<svg width="32" height="33" viewBox="0 0 32 33" fill="none" xmlns="http://www.w3.org/2000/svg">
<circle cx="16" cy="16.5" r="16" fill="#F34848"/>
<g clip-path="url(#clip0_505_4826)">
<path d="M10.3395 20.8329L11.5855 22.0967C12.0441 22.562 12.793 22.5672 13.2581 22.1088L15.9784 19.4269L18.6592 22.1467C19.1182 22.612 19.867 22.6172 20.332 22.1585L21.5953 20.9134C22.0606 20.4548 22.0661 19.7059 21.6071 19.2404L18.9261 16.5206L21.6467 13.8391C22.1117 13.3804 22.1174 12.6316 21.6582 12.166L20.4129 10.9022C19.954 10.4372 19.2051 10.4317 18.7401 10.8901L16.0194 13.572L13.3385 10.852C12.8796 10.387 12.1307 10.3815 11.6656 10.8398L10.4025 12.0852C9.9372 12.5441 9.93157 13.2927 10.3904 13.7582L13.0715 16.4782L10.3516 19.1604C9.88636 19.6188 9.88073 20.3679 10.3395 20.8329Z" fill="white"/>
</g>
<defs>
<clipPath id="clip0_505_4826">
<rect width="12" height="12" fill="white" transform="translate(10 10.5)"/>
</clipPath>
</defs>
</svg>
