<svg width="40" height="40" viewBox="0 0 40 40" fill="none" xmlns="http://www.w3.org/2000/svg">
<path d="M0.5 2.85714C0.5 1.55533 1.55533 0.5 2.85714 0.5H37.1429C38.4447 0.5 39.5 1.55533 39.5 2.85714V20C39.5 30.7696 30.7696 39.5 20 39.5C9.23045 39.5 0.5 30.7696 0.5 20V2.85714Z" fill="#FFE8E8"/>
<path d="M18.13 16.25V14.794H21.042V25H19.432V16.25H18.13Z" fill="#F34848"/>
<path d="M0.5 2.85714C0.5 1.55533 1.55533 0.5 2.85714 0.5H37.1429C38.4447 0.5 39.5 1.55533 39.5 2.85714V20C39.5 30.7696 30.7696 39.5 20 39.5C9.23045 39.5 0.5 30.7696 0.5 20V2.85714Z" stroke="#F34848"/>
</svg>
