<svg width="16" height="16" viewBox="0 0 16 16" fill="none" xmlns="http://www.w3.org/2000/svg">
<path d="M12.6671 9.33308C12.5822 9.31104 12.4937 9.30598 12.4068 9.31819C12.3199 9.3304 12.2363 9.35964 12.1608 9.40423C12.0852 9.44882 12.0192 9.50789 11.9665 9.57805C11.9138 9.64821 11.8755 9.72808 11.8538 9.81308C11.5988 10.8188 11.016 11.7108 10.1975 12.3483C9.3789 12.9858 8.37125 13.3323 7.33375 13.3331H3.60708L4.03375 12.9131C4.15792 12.7882 4.22761 12.6192 4.22761 12.4431C4.22761 12.267 4.15792 12.098 4.03375 11.9731C3.37875 11.3208 2.93222 10.4887 2.75081 9.58223C2.5694 8.67581 2.66127 7.73592 3.01478 6.88178C3.36829 6.02765 3.96751 5.29774 4.73643 4.78464C5.50536 4.27154 6.40935 3.99836 7.33375 3.99975C7.51056 3.99975 7.68013 3.92951 7.80516 3.80449C7.93018 3.67946 8.00042 3.50989 8.00042 3.33308C8.00042 3.15627 7.93018 2.9867 7.80516 2.86168C7.68013 2.73665 7.51056 2.66642 7.33375 2.66642C6.2054 2.67012 5.10095 2.99194 4.14721 3.59491C3.19347 4.19788 2.42908 5.05757 1.9418 6.07529C1.45452 7.09301 1.26409 8.22752 1.39238 9.34856C1.52067 10.4696 1.96248 11.5318 2.66709 12.4131L1.52709 13.5264C1.43458 13.6202 1.37192 13.7392 1.347 13.8685C1.32208 13.9979 1.33603 14.1317 1.38709 14.2531C1.4371 14.3748 1.52203 14.479 1.63118 14.5526C1.74032 14.6262 1.8688 14.6658 2.00042 14.6664H7.33375C8.66459 14.6673 9.95794 14.2256 11.0103 13.411C12.0627 12.5964 12.8144 11.455 13.1471 10.1664C13.1722 10.0802 13.1796 9.98975 13.1688 9.90057C13.1581 9.8114 13.1295 9.72531 13.0846 9.64748C13.0398 9.56965 12.9797 9.50168 12.908 9.44765C12.8362 9.39363 12.7543 9.35466 12.6671 9.33308ZM14.4738 3.50642L12.4738 1.50642C12.4103 1.44572 12.3356 1.39814 12.2538 1.36642C12.0914 1.29974 11.9094 1.29974 11.7471 1.36642C11.6653 1.39814 11.5905 1.44572 11.5271 1.50642L9.52708 3.50642C9.40155 3.63195 9.33102 3.80221 9.33102 3.97975C9.33102 4.15728 9.40155 4.32755 9.52708 4.45308C9.65262 4.57862 9.82288 4.64914 10.0004 4.64914C10.178 4.64914 10.3482 4.57862 10.4738 4.45308L11.3338 3.60642V7.33308C11.3338 7.50989 11.404 7.67946 11.529 7.80449C11.654 7.92951 11.8236 7.99975 12.0004 7.99975C12.1772 7.99975 12.3468 7.92951 12.4718 7.80449C12.5968 7.67946 12.6671 7.50989 12.6671 7.33308V3.60642L13.5271 4.47308C13.5891 4.53557 13.6628 4.58516 13.744 4.61901C13.8253 4.65285 13.9124 4.67028 14.0004 4.67028C14.0884 4.67028 14.1756 4.65285 14.2568 4.61901C14.338 4.58516 14.4118 4.53557 14.4738 4.47308C14.5362 4.41111 14.5858 4.33737 14.6197 4.25613C14.6535 4.17489 14.6709 4.08776 14.6709 3.99975C14.6709 3.91174 14.6535 3.8246 14.6197 3.74336C14.5858 3.66212 14.5362 3.58839 14.4738 3.52642V3.50642Z" fill="#324ECF"/>
</svg>
