<svg width="48" height="48" viewBox="0 0 48 48" fill="none" xmlns="http://www.w3.org/2000/svg">
<circle cx="24" cy="24" r="24" fill="#FFC431"/>
<path d="M22.1252 22.3201L22.7777 24.0001H21.4727L22.1252 22.3201Z" fill="white"/>
<path d="M30 13.5H18C17.4033 13.5 16.831 13.7371 16.409 14.159C15.9871 14.581 15.75 15.1533 15.75 15.75V32.25C15.75 32.8467 15.9871 33.419 16.409 33.841C16.831 34.2629 17.4033 34.5 18 34.5H26.25V30.75C26.25 30.1533 26.4871 29.581 26.909 29.159C27.331 28.7371 27.9033 28.5 28.5 28.5H32.25V15.75C32.25 15.1533 32.0129 14.581 31.591 14.159C31.169 13.7371 30.5967 13.5 30 13.5ZM25.02 27.6975C24.9344 27.7329 24.8426 27.7508 24.75 27.75C24.5989 27.7496 24.4515 27.7035 24.327 27.6178C24.2026 27.5322 24.1069 27.411 24.0525 27.27L23.3625 25.5H20.8875L20.1975 27.27C20.1675 27.3687 20.1174 27.4602 20.0505 27.5387C19.9835 27.6172 19.9011 27.681 19.8083 27.7262C19.7155 27.7713 19.6144 27.7969 19.5114 27.8012C19.4083 27.8055 19.3054 27.7885 19.2092 27.7513C19.113 27.7141 19.0255 27.6574 18.9521 27.5847C18.8788 27.5121 18.8213 27.4252 18.7831 27.3293C18.745 27.2335 18.727 27.1308 18.7303 27.0276C18.7336 26.9245 18.7582 26.8232 18.8025 26.73L21.4275 19.98C21.4828 19.8401 21.5789 19.7201 21.7032 19.6355C21.8276 19.5509 21.9746 19.5057 22.125 19.5057C22.2754 19.5057 22.4224 19.5509 22.5468 19.6355C22.6711 19.7201 22.7672 19.8401 22.8225 19.98L24.5625 24.48L25.4475 26.73C25.5185 26.915 25.5135 27.1207 25.4333 27.3019C25.3532 27.4832 25.2046 27.6254 25.02 27.6975ZM28.5 21H27.75V21.75C27.75 21.9489 27.671 22.1397 27.5303 22.2803C27.3897 22.421 27.1989 22.5 27 22.5C26.8011 22.5 26.6103 22.421 26.4697 22.2803C26.329 22.1397 26.25 21.9489 26.25 21.75V21H25.5C25.3011 21 25.1103 20.921 24.9697 20.7803C24.829 20.6397 24.75 20.4489 24.75 20.25C24.75 20.0511 24.829 19.8603 24.9697 19.7197C25.1103 19.579 25.3011 19.5 25.5 19.5H26.25V18.75C26.25 18.5511 26.329 18.3603 26.4697 18.2197C26.6103 18.079 26.8011 18 27 18C27.1989 18 27.3897 18.079 27.5303 18.2197C27.671 18.3603 27.75 18.5511 27.75 18.75V19.5H28.5C28.6989 19.5 28.8897 19.579 29.0303 19.7197C29.171 19.8603 29.25 20.0511 29.25 20.25C29.25 20.4489 29.171 20.6397 29.0303 20.7803C28.8897 20.921 28.6989 21 28.5 21ZM27.75 30.75V34.065L31.815 30H28.5C28.3011 30 28.1103 30.079 27.9697 30.2197C27.829 30.3603 27.75 30.5511 27.75 30.75Z" fill="white"/>
</svg>
