<svg width="50" height="50" viewBox="0 0 50 50" fill="none" xmlns="http://www.w3.org/2000/svg">
<circle cx="25" cy="25" r="25" fill="#FFF9EB"/>
<path d="M25 15C23.0614 15 21.4844 16.6161 21.4844 18.5547C21.4844 20.4933 23.0614 22.0703 25 22.0703C26.9386 22.0703 28.5156 20.4933 28.5156 18.5547C28.5156 16.6161 26.9386 15 25 15Z" fill="#FFC431"/>
<path d="M26.1715 22.0703H24.9996H23.8277C23.0013 22.0703 22.2026 22.2839 21.4766 22.6474C22.7097 22.9801 23.8708 23.4593 24.9996 24.1072C26.1284 23.4593 27.2895 22.9801 28.5227 22.6474C27.7966 22.2839 26.998 22.0703 26.1715 22.0703Z" fill="#FFC431"/>
<path d="M33.8281 25.5859C33.1809 25.5859 32.6562 26.1106 32.6562 26.7578V29.1016C32.6562 29.7487 33.1809 30.2734 33.8281 30.2734C34.4754 30.2734 35 29.7487 35 29.1016V26.7578C35 26.1106 34.4754 25.5859 33.8281 25.5859Z" fill="#FFC431"/>
<path d="M16.1719 25.5859C15.5246 25.5859 15 26.1106 15 26.7578V29.1016C15 29.7487 15.5246 30.2734 16.1719 30.2734C16.8191 30.2734 17.3438 29.7487 17.3438 29.1016V26.7578C17.3438 26.1106 16.8191 25.5859 16.1719 25.5859Z" fill="#FFC431"/>
<path d="M16.7578 23.2422C16.4339 23.2422 16.1719 23.5043 16.1719 23.8281V24.4141C17.4645 24.4141 18.5156 25.4652 18.5156 26.7578V29.1016C18.5156 30.3942 17.4645 31.4453 16.1719 31.4453V32.0312C16.1719 32.3551 16.4339 32.6172 16.7578 32.6172C19.7618 32.6172 22.1637 33.5659 24.4141 35V25.1404C22.1535 23.8443 19.7228 23.2422 16.7578 23.2422Z" fill="#FFC431"/>
<path d="M33.8281 24.4141V23.8281C33.8281 23.5043 33.5661 23.2422 33.2422 23.2422C30.2772 23.2422 27.8465 23.8443 25.5859 25.1404V35C27.8363 33.5659 30.2382 32.6172 33.2422 32.6172C33.5661 32.6172 33.8281 32.3551 33.8281 32.0312V31.4453C32.5355 31.4453 31.4844 30.3942 31.4844 29.1016V26.7578C31.4844 25.4652 32.5355 24.4141 33.8281 24.4141Z" fill="#FFC431"/>
</svg>
