<svg width="20" height="20" viewBox="0 0 20 20" fill="none" xmlns="http://www.w3.org/2000/svg">
<path d="M9.97233 15.1665H8.80566V4.83317H12.4723V5.77761C12.4723 6.24983 12.8334 6.61094 13.3057 6.61094C13.7779 6.61094 14.139 6.24983 14.139 5.77761V3.99984C14.139 3.52761 13.7779 3.1665 13.3057 3.1665H2.639C2.16677 3.1665 1.80566 3.52761 1.80566 3.99984V5.77761C1.80566 6.24983 2.16677 6.61094 2.639 6.61094C3.11122 6.61094 3.47233 6.24983 3.47233 5.77761V4.83317H7.13899V15.1387H5.97233C5.50011 15.1387 5.139 15.4998 5.139 15.972C5.139 16.4443 5.50011 16.8054 5.97233 16.8054H9.97233C10.4445 16.8054 10.8057 16.4443 10.8057 15.972C10.8057 15.4998 10.4168 15.1665 9.97233 15.1665Z" fill="#1F2933"/>
<path d="M17.361 7.4165H11.0277C10.5554 7.4165 10.1943 7.77761 10.1943 8.24984V9.38873C10.1943 9.86095 10.5554 10.2221 11.0277 10.2221C11.4999 10.2221 11.861 9.86095 11.861 9.38873V9.08317H13.361V15.1665H12.9166C12.4443 15.1665 12.0832 15.5276 12.0832 15.9998C12.0832 16.4721 12.4443 16.8332 12.9166 16.8332H15.4999C15.9721 16.8332 16.3332 16.4721 16.3332 15.9998C16.3332 15.5276 15.9721 15.1665 15.4999 15.1665H15.0277V9.08317H16.5277V9.38873C16.5277 9.86095 16.8888 10.2221 17.361 10.2221C17.8332 10.2221 18.1944 9.86095 18.1944 9.38873V8.24984C18.1944 7.80539 17.8332 7.4165 17.361 7.4165Z" fill="#1F2933"/>
</svg>
