<svg width="32" height="33" viewBox="0 0 32 33" fill="none" xmlns="http://www.w3.org/2000/svg">
<circle cx="16" cy="16.5" r="16" fill="#FFC431"/>
<path d="M15.0616 15.6598L15.3879 16.4998H14.7354L15.0616 15.6598Z" fill="white"/>
<path d="M19 11.25H13C12.7016 11.25 12.4155 11.3685 12.2045 11.5795C11.9935 11.7905 11.875 12.0766 11.875 12.375V20.625C11.875 20.9234 11.9935 21.2095 12.2045 21.4205C12.4155 21.6315 12.7016 21.75 13 21.75H17.125V19.875C17.125 19.5766 17.2435 19.2905 17.4545 19.0795C17.6655 18.8685 17.9516 18.75 18.25 18.75H20.125V12.375C20.125 12.0766 20.0065 11.7905 19.7955 11.5795C19.5845 11.3685 19.2984 11.25 19 11.25ZM16.51 18.3488C16.4672 18.3665 16.4213 18.3754 16.375 18.375C16.2995 18.3748 16.2257 18.3517 16.1635 18.3089C16.1013 18.2661 16.0534 18.2055 16.0262 18.135L15.6812 17.25H14.4438L14.0988 18.135C14.0837 18.1844 14.0587 18.2301 14.0252 18.2693C13.9917 18.3086 13.9505 18.3405 13.9041 18.3631C13.8578 18.3857 13.8072 18.3984 13.7557 18.4006C13.7041 18.4028 13.6527 18.3943 13.6046 18.3756C13.5565 18.357 13.5127 18.3287 13.4761 18.2924C13.4394 18.2561 13.4107 18.2126 13.3916 18.1647C13.3725 18.1167 13.3635 18.0654 13.3652 18.0138C13.3668 17.9623 13.3791 17.9116 13.4012 17.865L14.7137 14.49C14.7414 14.4201 14.7894 14.36 14.8516 14.3177C14.9138 14.2755 14.9873 14.2528 15.0625 14.2528C15.1377 14.2528 15.2112 14.2755 15.2734 14.3177C15.3356 14.36 15.3836 14.4201 15.4113 14.49L16.2812 16.74L16.7238 17.865C16.7593 17.9575 16.7567 18.0603 16.7167 18.151C16.6766 18.2416 16.6023 18.3127 16.51 18.3488ZM18.25 15H17.875V15.375C17.875 15.4745 17.8355 15.5698 17.7652 15.6402C17.6948 15.7105 17.5995 15.75 17.5 15.75C17.4005 15.75 17.3052 15.7105 17.2348 15.6402C17.1645 15.5698 17.125 15.4745 17.125 15.375V15H16.75C16.6505 15 16.5552 14.9605 16.4848 14.8902C16.4145 14.8198 16.375 14.7245 16.375 14.625C16.375 14.5255 16.4145 14.4302 16.4848 14.3598C16.5552 14.2895 16.6505 14.25 16.75 14.25H17.125V13.875C17.125 13.7755 17.1645 13.6802 17.2348 13.6098C17.3052 13.5395 17.4005 13.5 17.5 13.5C17.5995 13.5 17.6948 13.5395 17.7652 13.6098C17.8355 13.6802 17.875 13.7755 17.875 13.875V14.25H18.25C18.3495 14.25 18.4448 14.2895 18.5152 14.3598C18.5855 14.4302 18.625 14.5255 18.625 14.625C18.625 14.7245 18.5855 14.8198 18.5152 14.8902C18.4448 14.9605 18.3495 15 18.25 15ZM17.875 19.875V21.5325L19.9075 19.5H18.25C18.1505 19.5 18.0552 19.5395 17.9848 19.6098C17.9145 19.6802 17.875 19.7755 17.875 19.875Z" fill="white"/>
</svg>
