<svg width="48" height="48" viewBox="0 0 48 48" fill="none" xmlns="http://www.w3.org/2000/svg">
<circle cx="24" cy="24" r="24" fill="#FFC431"/>
<g clip-path="url(#clip0_1212_11896)">
<path d="M22.1252 22.3201L22.7777 24.0001H21.4727L22.1252 22.3201Z" fill="white"/>
<circle cx="24" cy="24" r="24" fill="#FFC431"/>
<g clip-path="url(#clip1_1212_11896)">
<path d="M16.2655 25.3599H13.1719V35.297C13.1719 35.6851 13.4869 36.0001 13.875 36.0001H16.3864C16.3081 35.7802 16.2655 35.5435 16.2655 35.297V25.3599Z" fill="white"/>
<path d="M15.2492 22.5833L16.2612 19.5473H13.8753C13.5857 19.5473 13.326 19.7249 13.2205 19.9945L12.0487 22.9943C11.8692 23.4551 12.2081 23.9533 12.7035 23.9533H15.2623C15.1076 23.5156 15.0997 23.0323 15.2492 22.5833Z" fill="white"/>
<path d="M31.7342 35.297C31.7342 35.5435 31.6916 35.7802 31.6133 36.0001H34.1247C34.5128 36.0001 34.8278 35.6851 34.8278 35.297V25.3599H31.7342V35.297Z" fill="white"/>
<path d="M35.9517 22.9943L34.7799 19.9945C34.6744 19.7249 34.4148 19.5473 34.1251 19.5473H31.7393L32.7512 22.5833C32.9008 23.0328 32.8928 23.516 32.7377 23.9533H35.2969C35.7912 23.9533 36.1322 23.4549 35.9517 22.9943Z" fill="white"/>
<path d="M29.9149 18.5286C29.8192 18.2415 29.5505 18.0478 29.2479 18.0478H24.7013V16.602L28.0091 15.2789C28.5671 15.0557 28.6057 14.2756 28.0687 14.0004L24.3189 12.0786C23.8516 11.8393 23.2951 12.179 23.2951 12.7043V18.0478H18.7484C18.4457 18.0478 18.1771 18.2415 18.0814 18.5286L16.5815 23.0284C16.4299 23.483 16.7687 23.9538 17.2485 23.9538H30.7479C31.2272 23.9538 31.5666 23.4835 31.4149 23.0284L29.9149 18.5286Z" fill="white"/>
<path d="M17.6719 35.297C17.6719 35.6851 17.9869 36.0001 18.375 36.0001H21.7967V33.7502C21.7967 33.3619 22.1115 33.0471 22.4998 33.0471H25.4996C25.8879 33.0471 26.2027 33.3619 26.2027 33.7502V36.0001H29.6245C30.0126 36.0001 30.3276 35.6851 30.3276 35.297V25.3599H17.6719V35.297ZM20.9999 27.0473H26.9996C27.3879 27.0473 27.7027 27.3621 27.7027 27.7504C27.7027 28.1387 27.3879 28.4535 26.9996 28.4535H20.9999C20.6116 28.4535 20.2968 28.1387 20.2968 27.7504C20.2968 27.3621 20.6116 27.0473 20.9999 27.0473ZM20.9999 30.0472H26.9996C27.3879 30.0472 27.7027 30.362 27.7027 30.7503C27.7027 31.1386 27.3879 31.4534 26.9996 31.4534H20.9999C20.6116 31.4534 20.2968 31.1386 20.2968 30.7503C20.2968 30.362 20.6116 30.0472 20.9999 30.0472Z" fill="white"/>
<path d="M23.2002 34.4544H24.7939V36.0012H23.2002V34.4544Z" fill="white"/>
</g>
</g>
<defs>
<clipPath id="clip0_1212_11896">
<rect width="24" height="24" fill="white" transform="translate(12 12)"/>
</clipPath>
<clipPath id="clip1_1212_11896">
<rect width="24" height="24" fill="white" transform="translate(12 12)"/>
</clipPath>
</defs>
</svg>
