<svg width="50" height="50" viewBox="0 0 50 50" fill="none" xmlns="http://www.w3.org/2000/svg">
<circle cx="25" cy="25" r="25" fill="#F3F0FA"/>
<g clip-path="url(#clip0_1933_14525)">
<path d="M18.5546 26.1328H15.9766V34.4137C15.9766 34.7371 16.2391 34.9996 16.5625 34.9996H18.6553C18.5901 34.8164 18.5546 34.6192 18.5546 34.4137V26.1328Z" fill="#324ECF"/>
<path d="M17.7076 23.819L18.551 21.2891H16.5628C16.3214 21.2891 16.105 21.4371 16.0171 21.6617L15.0406 24.1616C14.891 24.5456 15.1734 24.9608 15.5863 24.9608H17.7186C17.5897 24.5959 17.583 24.1932 17.7076 23.819Z" fill="#324ECF"/>
<path d="M31.4445 34.4137C31.4445 34.6192 31.409 34.8164 31.3438 34.9996H33.4366C33.76 34.9996 34.0225 34.7371 34.0225 34.4137V26.1328H31.4445V34.4137Z" fill="#324ECF"/>
<path d="M34.9596 24.1616L33.9831 21.6617C33.8952 21.4371 33.6788 21.2891 33.4374 21.2891H31.4492L32.2925 23.819C32.4171 24.1936 32.4105 24.5963 32.2812 24.9608H34.4139C34.8259 24.9608 35.11 24.5454 34.9596 24.1616Z" fill="#324ECF"/>
<path d="M29.9288 20.44C29.849 20.2008 29.6251 20.0394 29.373 20.0394H25.5841V18.8346L28.3406 17.732C28.8056 17.546 28.8378 16.8959 28.3903 16.6666L25.2654 15.0651C24.876 14.8657 24.4122 15.1487 24.4122 15.5865V20.0394H20.6233C20.3711 20.0394 20.1473 20.2008 20.0675 20.44L18.8176 24.1898C18.6912 24.5687 18.9736 24.9611 19.3734 24.9611H30.6229C31.0223 24.9611 31.3051 24.5691 31.1787 24.1898L29.9288 20.44Z" fill="#324ECF"/>
<path d="M19.7266 34.4137C19.7266 34.7371 19.9891 34.9996 20.3125 34.9996H23.1639V33.1247C23.1639 32.8011 23.4262 32.5388 23.7498 32.5388H26.2497C26.5733 32.5388 26.8356 32.8011 26.8356 33.1247V34.9996H29.6871C30.0105 34.9996 30.273 34.7371 30.273 34.4137V26.1328H19.7266V34.4137ZM22.4999 27.539H27.4997C27.8232 27.539 28.0856 27.8013 28.0856 28.1249C28.0856 28.4485 27.8232 28.7108 27.4997 28.7108H22.4999C22.1763 28.7108 21.914 28.4485 21.914 28.1249C21.914 27.8013 22.1763 27.539 22.4999 27.539ZM22.4999 30.0389H27.4997C27.8232 30.0389 28.0856 30.3012 28.0856 30.6248C28.0856 30.9484 27.8232 31.2107 27.4997 31.2107H22.4999C22.1763 31.2107 21.914 30.9484 21.914 30.6248C21.914 30.3012 22.1763 30.0389 22.4999 30.0389Z" fill="#324ECF"/>
<path d="M24.334 33.7109H25.662V35H24.334V33.7109Z" fill="#324ECF"/>
</g>
<defs>
<clipPath id="clip0_1933_14525">
<rect width="20" height="20" fill="white" transform="translate(15 15)"/>
</clipPath>
</defs>
</svg>
