<svg width="20" height="20" viewBox="0 0 20 20" fill="none" xmlns="http://www.w3.org/2000/svg">
<g clip-path="url(#clip0_2410_16411)">
<path d="M16.0587 5.95354L17.2562 4.75604L16.0778 3.57729L14.7968 4.85833C13.6265 4.02899 12.2609 3.51786 10.8337 3.375V1.66667H12.5003V0H7.50034V1.66667H9.167V3.375C7.73979 3.51786 6.37415 4.02899 5.20387 4.85833L3.92283 3.57729L2.7445 4.75604L3.942 5.95354C2.8242 7.13704 2.07753 8.62202 1.79419 10.2251C1.51085 11.8282 1.70325 13.4791 2.34763 14.9741C2.99201 16.4691 4.06015 17.7425 5.42014 18.6373C6.78013 19.532 8.37241 20.0088 10.0003 20.0088C11.6283 20.0088 13.2205 19.532 14.5805 18.6373C15.9405 17.7425 17.0087 16.4691 17.653 14.9741C18.2974 13.4791 18.4898 11.8282 18.2065 10.2251C17.9231 8.62202 17.1765 7.13704 16.0587 5.95354ZM10.0003 18.3333C8.68179 18.3333 7.39286 17.9423 6.29653 17.2098C5.2002 16.4772 4.34572 15.4361 3.84114 14.2179C3.33655 12.9997 3.20453 11.6593 3.46176 10.3661C3.719 9.07285 4.35394 7.88497 5.28629 6.95262C6.21864 6.02027 7.40653 5.38533 8.69973 5.1281C9.99294 4.87086 11.3334 5.00288 12.5516 5.50747C13.7697 6.01205 14.8109 6.86653 15.5435 7.96286C16.276 9.05919 16.667 10.3481 16.667 11.6667C16.665 13.4342 15.962 15.1287 14.7122 16.3785C13.4624 17.6283 11.7678 18.3313 10.0003 18.3333Z" fill="#1F2933"/>
<path d="M10 6.6665V11.6665H5C5 12.6554 5.29324 13.6221 5.84265 14.4444C6.39206 15.2666 7.17295 15.9075 8.08658 16.2859C9.00021 16.6643 10.0055 16.7634 10.9755 16.5704C11.9454 16.3775 12.8363 15.9013 13.5355 15.202C14.2348 14.5028 14.711 13.6119 14.9039 12.642C15.0969 11.672 14.9978 10.6667 14.6194 9.75309C14.241 8.83946 13.6001 8.05856 12.7779 7.50916C11.9556 6.95975 10.9889 6.6665 10 6.6665Z" fill="#1F2933"/>
</g>
<defs>
<clipPath id="clip0_2410_16411">
<rect width="20" height="20" fill="white"/>
</clipPath>
</defs>
</svg>
