<svg width="16" height="16" viewBox="0 0 16 16" fill="none" xmlns="http://www.w3.org/2000/svg">
<g clip-path="url(#clip0_2410_16995)">
<path d="M15.8991 11.2824C15.8411 11.6114 15.555 11.8429 15.2322 11.8429C15.1931 11.8429 15.1536 11.8395 15.1137 11.8324C14.745 11.7676 14.4987 11.4158 14.5637 11.0472C14.9525 8.84097 13.9096 6.60588 11.9687 5.48538C9.41418 4.01078 6.13608 4.88885 4.66127 7.44331C4.16037 8.31088 3.9164 9.30113 3.94865 10.2941L5.42905 8.81369C5.69377 8.54885 6.12305 8.54885 6.38783 8.81369C6.65262 9.07841 6.65262 9.50769 6.38783 9.77241L3.77258 12.3877C3.64546 12.5148 3.47302 12.5863 3.29321 12.5863C3.1134 12.5863 2.94096 12.5148 2.81384 12.3877L0.198586 9.77244C-0.0661953 9.50772 -0.0661953 9.07844 0.198586 8.81372C0.463336 8.54888 0.892617 8.54888 1.15737 8.81372L2.59177 10.2481C2.5688 9.03391 2.87437 7.82647 3.48696 6.76535C5.33562 3.56347 9.44468 2.46241 12.6466 4.3111C15.0793 5.71553 16.3863 8.5171 15.8991 11.2824Z" fill="#324ECF"/>
</g>
<defs>
<clipPath id="clip0_2410_16995">
<rect width="16" height="16" fill="white"/>
</clipPath>
</defs>
</svg>
