<svg width="170" height="170" viewBox="0 0 170 170" fill="none" xmlns="http://www.w3.org/2000/svg">
<path d="M81.3477 3.65234C53.7054 3.65234 29.2878 17.4429 14.5875 38.5156V45.1562L7.06596 51.7969C5.16475 56.0436 3.61814 60.4831 2.46135 65.0781L5.02264 71.7188L0.27127 78.3594C0.160371 79.7337 0.0833398 81.1172 0.0415039 82.5098L1.88627 85L0.0415039 87.4902C0.0833398 88.8828 0.160039 90.2667 0.27127 91.6406L6.64062 98.2812L2.46135 104.922C2.8133 106.32 3.19879 107.704 3.62213 109.072L7.06596 111.562L5.3477 114.053C5.88393 115.455 6.45535 116.839 7.06596 118.203L15.5347 124.844L14.5875 131.484C29.2878 152.557 53.7054 166.348 81.3477 166.348C126.275 166.348 162.695 129.927 162.695 85C162.695 40.0729 126.275 3.65234 81.3477 3.65234Z" fill="#FFDD40"/>
<path d="M73.0469 151.406C109.722 151.406 139.453 121.675 139.453 85C139.453 48.3248 109.722 18.5938 73.0469 18.5938C36.3717 18.5938 6.64062 48.3248 6.64062 85C6.64062 121.675 36.3717 151.406 73.0469 151.406Z" fill="#FFC839"/>
<path d="M2.46141 65.0781H62.0899V78.3594H0.270996C0.638223 73.8165 1.37865 69.3796 2.46141 65.0781Z" fill="#FCF2C8"/>
<path d="M20.1929 71.7852V71.6523C20.1929 68.0216 23.1363 65.0781 26.7671 65.0781H2.46141C1.37865 69.3796 0.638223 73.8165 0.270996 78.3594H26.7671C23.1363 78.3594 20.1929 75.4159 20.1929 71.7852Z" fill="#FEE884"/>
<path d="M7.06592 118.203H62.0898V131.484H14.5874C11.6851 127.324 9.16037 122.881 7.06592 118.203Z" fill="#FCF2C8"/>
<path d="M26.9878 124.864V124.823C26.9878 121.167 29.9518 118.203 33.6078 118.203H7.06592C9.16037 122.881 11.6851 127.324 14.5874 131.484H33.6078C29.9518 131.484 26.9878 128.52 26.9878 124.864Z" fill="#FEE884"/>
<path d="M86.3641 23.2753L74.3538 28.2501C71.8762 29.2764 70.5331 32.0635 71.4416 34.5866C72.0392 36.2461 73.4109 37.3803 74.9873 37.7532C77.1256 38.2589 78.9339 39.6743 79.7746 41.7043L83.3565 50.3521L95.6268 45.2697L92.0448 36.6219C91.2038 34.5919 91.4817 32.3125 92.6361 30.4428C93.4871 29.0642 93.6551 27.2925 92.9041 25.6965C91.7622 23.27 88.8417 22.249 86.3641 23.2753Z" fill="#543E5B"/>
<path d="M81.1221 35.2123C79.5457 34.8394 78.174 33.7052 77.5764 32.0457C76.6679 29.5226 78.011 26.7355 80.4886 25.7092L74.3533 28.2506C71.8757 29.2769 70.5327 32.064 71.4411 34.5871C72.0387 36.2466 73.4104 37.3808 74.9869 37.7537C77.1251 38.2593 78.9334 39.6748 79.7741 41.7048L83.356 50.3526L89.4913 47.8112L85.9094 39.1635C85.0687 37.1334 83.2608 35.7183 81.1221 35.2123Z" fill="#45304C"/>
<path d="M67.3443 20.3721L85.7498 12.7483C88.2912 11.6958 91.2044 12.9024 92.257 15.4437C93.3095 17.9851 92.1029 20.8984 89.5615 21.9509L71.156 29.5747C68.6147 30.6272 65.7014 29.4206 64.6489 26.8792C63.5964 24.3382 64.8033 21.4246 67.3443 20.3721Z" fill="#6C5475"/>
<path d="M73.8515 23.0675C72.799 20.5261 74.0056 17.6128 76.547 16.5603L67.3444 20.3724C64.803 21.4249 63.5964 24.3385 64.6489 26.8795C65.7015 29.4209 68.6151 30.6275 71.1561 29.5749L80.3587 25.7629C77.8176 26.8154 74.9041 25.6088 73.8515 23.0675Z" fill="#543E5B"/>
<path d="M110.219 157.616C143.226 157.616 169.984 130.858 169.984 97.8508C169.984 64.8432 143.226 38.0852 110.219 38.0852C77.2111 38.0852 50.4531 64.8432 50.4531 97.8508C50.4531 130.858 77.2111 157.616 110.219 157.616Z" fill="#6C5475"/>
<path d="M125.769 150.035C124.587 147.18 125.947 143.896 128.802 142.714L91.6355 52.9876C88.7768 54.1716 85.4989 52.8143 84.3149 49.9551C83.1306 47.0964 84.4882 43.8185 87.3474 42.6345C56.8523 55.266 42.3711 90.2269 55.0025 120.722C67.634 151.217 102.595 165.698 133.09 153.067C130.236 154.249 126.951 152.889 125.769 150.035Z" fill="#543E5B"/>
<path d="M110.219 146.41C137.037 146.41 158.778 124.67 158.778 97.8508C158.778 71.0321 137.037 49.2913 110.219 49.2913C83.4 49.2913 61.6592 71.0321 61.6592 97.8508C61.6592 124.67 83.4 146.41 110.219 146.41Z" fill="#D3DCFB"/>
<path d="M110.219 140.807C133.943 140.807 153.175 121.575 153.175 97.8508C153.175 74.1266 133.943 54.8943 110.219 54.8943C86.4945 54.8943 67.2622 74.1266 67.2622 97.8508C67.2622 121.575 86.4945 140.807 110.219 140.807Z" fill="white"/>
<path d="M84.3364 108.572C76.2471 89.0425 83.6839 66.8901 100.932 55.9075C98.5257 56.4414 96.1338 57.1894 93.7803 58.1643C71.8972 67.2287 61.4681 92.4063 70.5325 114.29C79.597 136.173 104.775 146.602 126.658 137.538C129.012 136.563 131.232 135.4 133.311 134.077C113.349 138.507 92.4257 128.101 84.3364 108.572Z" fill="#DEEEFF"/>
<path d="M110.22 100.342C109.243 100.342 108.316 99.7628 107.918 98.8035L95.7675 69.4699C95.2409 68.1993 95.8442 66.7426 97.1153 66.2164C98.3863 65.6901 99.8425 66.2931 100.369 67.5641L112.52 96.8977C113.046 98.1684 112.443 99.625 111.172 100.151C110.86 100.28 110.537 100.342 110.22 100.342Z" fill="#FF4155"/>
<path d="M110.219 103.454C113.313 103.454 115.822 100.945 115.822 97.8508C115.822 94.7564 113.313 92.2478 110.219 92.2478C107.124 92.2478 104.616 94.7564 104.616 97.8508C104.616 100.945 107.124 103.454 110.219 103.454Z" fill="#FF7186"/>
<path d="M122.375 129.675C121 129.675 119.883 128.56 119.883 127.185C119.883 125.809 120.997 124.694 122.372 124.694H122.375C123.751 124.694 124.865 125.809 124.865 127.185C124.865 128.56 123.751 129.675 122.375 129.675Z" fill="#BEC8F7"/>
<path d="M85.0358 81.0127C83.6606 81.0127 82.5439 79.8981 82.5439 78.5225C82.5439 77.1469 83.6576 76.0322 85.0325 76.0322H85.0358C86.4114 76.0322 87.5261 77.1469 87.5261 78.5225C87.5261 79.8981 86.4114 81.0127 85.0358 81.0127Z" fill="#BEC8F7"/>
<path d="M135.415 119.669C134.039 119.669 132.923 118.555 132.923 117.179C132.923 115.804 134.036 114.689 135.411 114.689H135.415C136.79 114.689 137.905 115.804 137.905 117.179C137.905 118.555 136.79 119.669 135.415 119.669Z" fill="#BEC8F7"/>
<path d="M78.7463 96.1968C77.371 96.1968 76.2544 95.0821 76.2544 93.7065C76.2544 92.3309 77.368 91.2163 78.743 91.2163H78.7463C80.1219 91.2163 81.2365 92.3309 81.2365 93.7065C81.2365 95.0821 80.1219 96.1968 78.7463 96.1968Z" fill="#BEC8F7"/>
<path d="M141.704 104.486C140.329 104.486 139.212 103.371 139.212 101.995C139.212 100.62 140.326 99.5051 141.701 99.5051H141.704C143.079 99.5051 144.194 100.62 144.194 101.995C144.194 103.371 143.079 104.486 141.704 104.486Z" fill="#BEC8F7"/>
<path d="M80.8913 112.491C79.516 112.491 78.3994 111.377 78.3994 110.001C78.3994 108.626 79.513 107.511 80.888 107.511H80.8913C82.2669 107.511 83.3815 108.626 83.3815 110.001C83.3815 111.377 82.2669 112.491 80.8913 112.491Z" fill="#BEC8F7"/>
<path d="M139.559 88.1904C138.184 88.1904 137.067 87.0758 137.067 85.7002C137.067 84.3246 138.181 83.21 139.555 83.21H139.559C140.934 83.21 142.049 84.3246 142.049 85.7002C142.049 87.0758 140.934 88.1904 139.559 88.1904Z" fill="#BEC8F7"/>
<path d="M90.8967 125.53C89.5214 125.53 88.4048 124.416 88.4048 123.04C88.4048 121.664 89.5184 120.55 90.8934 120.55H90.8967C92.2723 120.55 93.3869 121.664 93.3869 123.04C93.3869 124.416 92.272 125.53 90.8967 125.53Z" fill="#BEC8F7"/>
<path d="M129.554 75.1516C128.179 75.1516 127.062 74.037 127.062 72.6614C127.062 71.2858 128.176 70.1711 129.551 70.1711H129.554C130.93 70.1711 132.044 71.2858 132.044 72.6614C132.044 74.037 130.929 75.1516 129.554 75.1516Z" fill="#BEC8F7"/>
<path d="M106.081 131.82C104.705 131.82 103.589 130.705 103.589 129.33C103.589 127.954 104.702 126.84 106.077 126.84H106.081C107.456 126.84 108.571 127.954 108.571 129.33C108.571 130.705 107.456 131.82 106.081 131.82Z" fill="#BEC8F7"/>
<path d="M114.369 68.8621C112.994 68.8621 111.877 67.7474 111.877 66.3718C111.877 64.9962 112.991 63.8816 114.366 63.8816H114.369C115.745 63.8816 116.86 64.9962 116.86 66.3718C116.86 67.7474 115.745 68.8621 114.369 68.8621Z" fill="#BEC8F7"/>
<path d="M65.4102 104.922H2.46141C1.37865 100.62 0.638223 96.1835 0.270996 91.6406H65.4102C69.0779 91.6406 72.0509 94.6136 72.0509 98.2812C72.0509 101.949 69.0779 104.922 65.4102 104.922Z" fill="#FCF2C8"/>
<path d="M20.1929 98.2812C20.1929 94.6136 23.1659 91.6406 26.8335 91.6406H0.270996C0.638223 96.1835 1.37832 100.62 2.46141 104.922H26.8335C23.1662 104.922 20.1929 101.949 20.1929 98.2812Z" fill="#FEE884"/>
<path d="M55.4492 51.7969H7.06592C9.16037 47.1186 11.6851 42.676 14.5874 38.5156H55.4492C59.1168 38.5156 62.0898 41.4886 62.0898 45.1562C62.0898 48.8239 59.1168 51.7969 55.4492 51.7969Z" fill="#FCF2C8"/>
<path d="M26.9878 45.1562C26.9878 41.4886 29.9608 38.5156 33.6284 38.5156H14.5874C11.6851 42.676 9.16004 47.1186 7.06592 51.7969H33.6284C29.9608 51.7969 26.9878 48.8239 26.9878 45.1562Z" fill="#FEE884"/>
<path d="M83.5376 55.9473H13.811C12.4358 55.9473 11.3208 57.0619 11.3208 58.4375C11.3208 59.8131 12.4358 60.9277 13.811 60.9277H83.5376C84.9129 60.9277 86.0278 59.8131 86.0278 58.4375C86.0278 57.0619 84.9129 55.9473 83.5376 55.9473Z" fill="#FCF2C8"/>
<path d="M31.2427 58.4375C31.2427 57.0619 32.3576 55.9473 33.7329 55.9473H13.811C12.4358 55.9473 11.3208 57.0619 11.3208 58.4375C11.3208 59.8131 12.4358 60.9277 13.811 60.9277H33.7329C32.3576 60.9277 31.2427 59.8131 31.2427 58.4375Z" fill="#FEE884"/>
<path d="M27.6008 87.4902H0.0415039C0.0166016 86.6628 0 85.8334 0 85C0 84.1666 0.0166016 83.3372 0.0415039 82.5098H27.6011C28.9764 82.5098 30.0913 83.6244 30.0913 85C30.0913 86.3756 28.9764 87.4902 27.6008 87.4902Z" fill="#FCF2C8"/>
<path d="M19.9219 85C19.9219 83.6244 21.0368 82.5098 22.4121 82.5098H0.0415039C0.0166016 83.3372 0 84.1666 0 85C0 85.8334 0.0166016 86.6628 0.0415039 87.4902H22.4121C21.0368 87.4902 19.9219 86.3756 19.9219 85Z" fill="#FEE884"/>
<path d="M57.1023 114.053H5.34764C4.72176 112.416 4.14336 110.757 3.62207 109.072H57.1023C58.4776 109.072 59.5926 110.187 59.5926 111.562C59.5926 112.938 58.4776 114.053 57.1023 114.053Z" fill="#FCF2C8"/>
<path d="M23.5439 111.562C23.5439 110.187 24.6589 109.072 26.0342 109.072H3.62207C4.14336 110.757 4.72176 112.416 5.34764 114.053H26.0342C24.6589 114.053 23.5439 112.938 23.5439 111.562Z" fill="#FEE884"/>
</svg>
