<svg width="1440" height="512" viewBox="0 0 1440 512" fill="none" xmlns="http://www.w3.org/2000/svg">
<rect y="20" width="1440" height="492" fill="#324ECF"/>
<circle cx="1420" cy="60" r="60" fill="#FFC431"/>
<g opacity="0.32">
<circle cx="72" cy="361" r="4" fill="white"/>
<circle cx="88" cy="361" r="4" fill="white"/>
<circle cx="104" cy="361" r="4" fill="white"/>
<circle cx="120" cy="361" r="4" fill="white"/>
<circle cx="136" cy="361" r="4" fill="white"/>
<circle cx="152" cy="361" r="4" fill="white"/>
<circle cx="168" cy="361" r="4" fill="white"/>
<circle cx="184" cy="361" r="4" fill="white"/>
<circle cx="72" cy="377" r="4" fill="white"/>
<circle cx="88" cy="377" r="4" fill="white"/>
<circle cx="104" cy="377" r="4" fill="white"/>
<circle cx="120" cy="377" r="4" fill="white"/>
<circle cx="136" cy="377" r="4" fill="white"/>
<circle cx="152" cy="377" r="4" fill="white"/>
<circle cx="168" cy="377" r="4" fill="white"/>
<circle cx="184" cy="377" r="4" fill="white"/>
<circle cx="72" cy="393" r="4" fill="white"/>
<circle cx="88" cy="393" r="4" fill="white"/>
<circle cx="104" cy="393" r="4" fill="white"/>
<circle cx="120" cy="393" r="4" fill="white"/>
<circle cx="136" cy="393" r="4" fill="white"/>
<circle cx="152" cy="393" r="4" fill="white"/>
<circle cx="168" cy="393" r="4" fill="white"/>
<circle cx="184" cy="393" r="4" fill="white"/>
<circle cx="72" cy="409" r="4" fill="white"/>
<circle cx="88" cy="409" r="4" fill="white"/>
<circle cx="104" cy="409" r="4" fill="white"/>
<circle cx="120" cy="409" r="4" fill="white"/>
<circle cx="136" cy="409" r="4" fill="white"/>
<circle cx="152" cy="409" r="4" fill="white"/>
<circle cx="168" cy="409" r="4" fill="white"/>
<circle cx="184" cy="409" r="4" fill="white"/>
<circle cx="72" cy="425" r="4" fill="white"/>
<circle cx="88" cy="425" r="4" fill="white"/>
<circle cx="104" cy="425" r="4" fill="white"/>
<circle cx="120" cy="425" r="4" fill="white"/>
<circle cx="136" cy="425" r="4" fill="white"/>
<circle cx="152" cy="425" r="4" fill="white"/>
<circle cx="168" cy="425" r="4" fill="white"/>
<circle cx="184" cy="425" r="4" fill="white"/>
<circle cx="72" cy="441" r="4" fill="white"/>
<circle cx="88" cy="441" r="4" fill="white"/>
<circle cx="104" cy="441" r="4" fill="white"/>
<circle cx="120" cy="441" r="4" fill="white"/>
<circle cx="136" cy="441" r="4" fill="white"/>
<circle cx="152" cy="441" r="4" fill="white"/>
<circle cx="168" cy="441" r="4" fill="white"/>
<circle cx="184" cy="441" r="4" fill="white"/>
<circle cx="72" cy="457" r="4" fill="white"/>
<circle cx="88" cy="457" r="4" fill="white"/>
<circle cx="104" cy="457" r="4" fill="white"/>
<circle cx="120" cy="457" r="4" fill="white"/>
<circle cx="136" cy="457" r="4" fill="white"/>
<circle cx="152" cy="457" r="4" fill="white"/>
<circle cx="168" cy="457" r="4" fill="white"/>
<circle cx="184" cy="457" r="4" fill="white"/>
<circle cx="72" cy="473" r="4" fill="white"/>
<circle cx="88" cy="473" r="4" fill="white"/>
<circle cx="104" cy="473" r="4" fill="white"/>
<circle cx="120" cy="473" r="4" fill="white"/>
<circle cx="136" cy="473" r="4" fill="white"/>
<circle cx="152" cy="473" r="4" fill="white"/>
<circle cx="168" cy="473" r="4" fill="white"/>
<circle cx="184" cy="473" r="4" fill="white"/>
</g>
</svg>
